  <svg
    width="217"
    height="260"
    viewBox="0 0 217 260"
    fill="none"
    xmlns="http://www.w3.org/2000/svg"
  >
    <path
      d="M108.382 229.889C48.5244 229.889 -0.000106812 179.322 -0.000106812 116.945C-0.000106812 54.567 48.5244 4 108.382 4C168.24 4 216.765 54.567 216.765 116.945C216.765 179.322 168.24 229.889 108.382 229.889Z"
      fill="#515362"
    />
    <path
      opacity="0.86"
      d="M106.82 201.248C61.0871 201.248 24.0134 162.34 24.0134 114.344C24.0134 66.3482 61.0871 27.4399 106.82 27.4399C152.553 27.4399 189.626 66.3482 189.626 114.344C189.626 162.34 152.553 201.248 106.82 201.248Z"
      fill="#4C6166"
    />
    <path
      opacity="0.61"
      d="M106.82 179.063C72.6014 179.063 44.8619 150.156 44.8619 114.497C44.8619 78.8381 72.6014 49.9309 106.82 49.9309C141.038 49.9309 168.778 78.8381 168.778 114.497C168.778 150.156 141.038 179.063 106.82 179.063Z"
      fill="url(#paint0_radial)"
    />
    <path
      opacity="0.89"
      d="M106.82 160.183C82.6075 160.183 62.9795 139.729 62.9795 114.497C62.9795 89.2654 82.6075 68.8112 106.82 68.8112C131.032 68.8112 150.66 89.2654 150.66 114.497C150.66 139.729 131.032 160.183 106.82 160.183Z"
      fill="url(#paint1_radial)"
    />
    <path
      d="M72.1996 127.961L81.6548 66.0571C82.5358 60.3961 88.7609 56.0509 95.6321 56.0509H117.391C124.262 56.0509 130.487 60.3655 131.368 66.0571L140.823 127.961C142.614 139.773 135.244 150.299 124.115 150.299H88.9078C77.8082 150.299 70.4084 139.773 72.1996 127.961ZM81.2144 140.323C82.5651 141.976 85.0023 144.179 88.9078 144.179H124.145C128.05 144.179 130.487 141.884 131.838 140.232C134.128 137.416 135.097 133.285 134.451 129.185L124.996 67.4953C124.732 65.7205 121.649 63.3949 117.42 63.3949H95.6615C91.4331 63.3949 88.3498 65.6593 88.0856 67.4341L78.6304 129.185C77.955 133.316 78.924 137.508 81.2144 140.323Z"
      stroke="#323345"
      stroke-width="2.00437"
      stroke-miterlimit="10"
      stroke-linecap="round"
      stroke-linejoin="round"
    />
    <path
      d="M72.1996 127.961L81.6548 66.0571C82.5358 60.3961 88.7609 56.0509 95.6321 56.0509H117.391C124.262 56.0509 130.487 60.3655 131.368 66.0571L140.823 127.961C142.614 139.773 135.244 150.299 124.115 150.299H88.9078C77.8082 150.299 70.4084 139.773 72.1996 127.961ZM81.2144 140.323C82.5651 141.976 85.0023 144.179 88.9078 144.179H124.145C128.05 144.179 130.487 141.884 131.838 140.231C134.128 137.416 135.097 133.285 134.451 129.185L124.996 67.4953C124.732 65.7205 121.649 63.3949 117.42 63.3949H95.6615C91.4331 63.3949 88.3498 65.6593 88.0856 67.4341L78.6304 129.185C77.955 133.316 78.924 137.508 81.2144 140.323Z"
      fill="#1C6F45"
    />
    <path
      d="M72.1996 127.961L81.6548 66.0571C82.5358 60.3961 88.7609 56.0509 95.6321 56.0509H117.391C124.262 56.0509 130.487 60.3655 131.368 66.0571L140.823 127.961C142.614 139.773 135.244 150.299 124.115 150.299H88.9078C77.8082 150.299 70.4084 139.773 72.1996 127.961ZM81.2144 140.323C82.5651 141.976 85.0023 144.179 88.9078 144.179H124.145C128.05 144.179 130.487 141.884 131.838 140.231C134.128 137.416 135.097 133.285 134.451 129.185L124.996 67.4953C124.732 65.7205 121.649 63.3949 117.42 63.3949H95.6615C91.4331 63.3949 88.3498 65.6593 88.0856 67.4341L78.6304 129.185C77.955 133.316 78.924 137.508 81.2144 140.323Z"
      fill="#1C6F45"
    />
    <path
      opacity="0.59"
      d="M134.451 129.185L127.433 83.4992C129.283 81.9998 131.28 80.7146 133.453 79.7354L140.823 127.992C141.264 130.899 141.146 133.744 140.559 136.376C138.386 136.07 136.331 135.489 134.363 134.693C134.716 132.918 134.745 131.052 134.451 129.185Z"
      fill="#C8A82F"
    />
    <path
      opacity="0.59"
      d="M78.601 129.185C78.3661 130.776 78.3661 132.398 78.5716 133.928C76.6336 134.877 74.5782 135.611 72.4346 136.07C71.906 133.53 71.7886 130.807 72.229 127.992L79.4819 80.5615C81.6255 81.7243 83.6222 83.1931 85.4135 84.8761L78.601 129.185Z"
      fill="#C8A82F"
    />
    <path
      d="M88.9077 150.299H124.145C135.244 150.299 142.644 139.773 140.853 127.961L131.397 66.0571C130.517 60.3961 124.291 56.0509 117.42 56.0509H95.6615C88.7903 56.0509 82.5651 60.3655 81.6842 66.0571L72.229 127.961C70.4084 139.773 77.8082 150.299 88.9077 150.299Z"
      stroke="#323345"
      stroke-width="2.00437"
      stroke-miterlimit="10"
      stroke-linecap="round"
      stroke-linejoin="round"
    />
    <path
      d="M72.1996 127.961L81.6548 66.0571C82.5358 60.3961 88.7609 56.0509 95.6321 56.0509H117.391C124.262 56.0509 130.487 60.3655 131.368 66.0571L140.823 127.961C142.614 139.773 135.244 150.299 124.115 150.299H88.9078C77.8082 150.299 70.4084 139.773 72.1996 127.961ZM78.5423 142.312C81.1557 145.495 84.8262 147.239 88.9371 147.239H124.145C128.255 147.239 131.926 145.495 134.539 142.312C137.505 138.702 138.738 133.622 137.946 128.451L128.49 66.5467C127.874 62.4463 122.911 59.1109 117.42 59.1109H95.6615C90.1998 59.1109 85.2373 62.4463 84.5912 66.5467L75.1067 128.451C74.3139 133.653 75.5765 138.702 78.5423 142.312Z"
      fill="#145B34"
    />
    <path
      d="M72.1996 127.961L81.6548 66.0571C82.5358 60.3961 88.7609 56.0509 95.6321 56.0509H117.391C124.262 56.0509 130.487 60.3655 131.368 66.0571L140.823 127.961C142.614 139.773 135.244 150.299 124.115 150.299H88.9078C77.8082 150.299 70.4084 139.773 72.1996 127.961Z"
      stroke="#323345"
      stroke-width="2.00437"
      stroke-miterlimit="10"
      stroke-linecap="round"
      stroke-linejoin="round"
    />
    <path
      d="M98.0987 83.4991C104.03 83.4991 109.962 83.4991 115.864 83.4991C120.533 89.0989 124.644 96.5041 126.464 105.348C128.608 115.384 127.169 126.615 122.676 135.274C121.003 138.518 117.45 140.629 113.926 140.629C109.14 140.629 104.324 140.629 99.5375 140.629C95.9551 140.629 92.314 138.457 90.699 135.152C86.588 126.737 85.0905 115.629 87.88 103.971C89.9062 95.1577 93.8116 88.2115 98.0987 83.4991Z"
      fill="#DFC19F"
    />
    <path
      d="M106.702 131.939C97.4585 131.939 89.9649 124.13 89.9649 114.497C89.9649 104.864 97.4585 97.0549 106.702 97.0549C115.946 97.0549 123.44 104.864 123.44 114.497C123.44 124.13 115.946 131.939 106.702 131.939Z"
      fill="url(#paint2_radial)"
    />
    <path
      d="M110.813 95.123C109.459 90.1654 110.069 85.6403 112.175 85.0158C114.28 84.3914 117.085 87.9041 118.439 92.8617C119.792 97.8192 119.183 102.344 117.077 102.969C114.971 103.593 112.167 100.081 110.813 95.123Z"
      fill="#ECDBC9"
    />
    <path
      d="M98.0987 83.8052C104.03 83.8052 109.962 83.8052 115.864 83.8052C120.533 89.405 124.644 96.6878 126.464 105.501C128.608 115.537 127.169 126.859 122.676 135.519C121.003 138.763 117.45 140.935 113.926 140.935C109.14 140.935 104.324 140.935 99.5375 140.935C95.9551 140.935 92.314 138.61 90.699 135.305C86.588 126.89 85.0905 115.843 87.88 104.215C89.9062 95.372 93.8116 88.5176 98.0987 83.8052Z"
      stroke="#323345"
      stroke-width="1.33624"
      stroke-miterlimit="10"
      stroke-linecap="round"
      stroke-linejoin="round"
    />
    <path
      d="M88.9078 154.889H124.732V148.922C124.732 146.902 123.146 145.25 121.208 145.25H92.4314C90.4934 145.25 88.9078 146.902 88.9078 148.922V154.889Z"
      fill="#145B34"
    />
    <path
      d="M94.1052 152.808H119.564V150.911C119.564 148.891 117.978 147.239 116.04 147.239H97.6288C95.6908 147.239 94.1052 148.891 94.1052 150.911V152.808Z"
      fill="#1B6E44"
    />
    <path
      opacity="0.59"
      d="M92.4314 145.25H121.208C123.146 145.25 124.732 146.535 124.732 148.096V150.085C124.732 148.524 123.146 147.239 121.208 147.239H92.4314C90.4934 147.239 88.9078 148.524 88.9078 150.085V148.096C88.9078 146.535 90.4934 145.25 92.4314 145.25Z"
      fill="#C8A82F"
    />
    <path
      d="M88.9078 154.889H124.732V148.922C124.732 146.902 123.146 145.25 121.208 145.25H92.4314C90.4934 145.25 88.9078 146.902 88.9078 148.922V154.889Z"
      stroke="#323345"
      stroke-width="2.00437"
      stroke-miterlimit="10"
      stroke-linecap="round"
      stroke-linejoin="round"
    />
    <path
      d="M80.1573 163.457H133.6V162.233C133.6 158.163 130.428 154.889 126.552 154.889H87.234C83.3286 154.889 80.1867 158.194 80.1867 162.233V163.457H80.1573Z"
      fill="#1B6E44"
    />
    <path
      d="M133.424 160.55C133.541 161.101 133.6 161.652 133.6 162.233V163.457H80.1573V162.233C80.1573 161.652 80.216 161.07 80.3335 160.55H133.424Z"
      fill="#145B34"
    />
    <path
      opacity="0.59"
      d="M87.2046 154.889H126.552C130.458 154.889 133.6 158.194 133.6 162.233V163.457H133.541C133.159 159.785 130.164 156.939 126.523 156.939H87.2046C83.5635 156.939 80.5977 159.785 80.1866 163.457H80.1279V162.233C80.1573 158.194 83.3286 154.889 87.2046 154.889Z"
      fill="#C8A82F"
    />
    <path
      opacity="0.3"
      d="M32.529 260H181.228L133.6 163.457H80.1574L32.529 260Z"
      fill="url(#paint3_linear)"
    />
    <path
      opacity="0.3"
      d="M49.5601 260H164.197L133.6 163.457H80.1573L49.5601 260Z"
      fill="url(#paint4_linear)"
    />
    <path
      opacity="0.3"
      d="M69.3515 260H144.406L133.6 163.457H80.1574L69.3515 260Z"
      fill="url(#paint5_linear)"
    />
    <path
      d="M80.1573 163.457H133.6V162.233C133.6 158.163 130.428 154.889 126.552 154.889H87.234C83.3286 154.889 80.1867 158.194 80.1867 162.233V163.457H80.1573Z"
      stroke="#323345"
      stroke-width="2.00437"
      stroke-miterlimit="10"
      stroke-linecap="round"
      stroke-linejoin="round"
    />
    <path
      d="M93.8116 86.5896C102.621 86.5896 111.43 86.5896 120.239 86.5896C119.975 84.6006 118.742 82.4586 117.097 80.4696C110.373 80.4696 103.648 80.4696 96.9241 80.4696C95.2798 82.4586 94.0758 84.6006 93.8116 86.5896Z"
      fill="#145B34"
    />
    <path
      d="M104.089 86.5896H109.962C112.252 86.5896 113.808 84.2028 113.016 81.969C112.839 81.4794 112.634 80.9592 112.428 80.4696C107.348 80.4696 106.761 80.4696 101.681 80.4696C101.476 80.9592 101.27 81.4488 101.094 81.969C100.213 84.1722 101.799 86.5896 104.089 86.5896Z"
      fill="#1B6E44"
    />
    <path
      d="M92.2847 70.1269H121.942L119.27 67.4647H94.9568L92.2847 70.1269Z"
      fill="#145B34"
    />
    <path
      d="M93.8116 86.5896C102.621 86.5896 111.43 86.5896 120.239 86.5896C119.975 84.6006 118.742 82.4586 117.097 80.4696C110.373 80.4696 103.648 80.4696 96.9241 80.4696C95.2798 82.4586 94.0758 84.6006 93.8116 86.5896Z"
      stroke="#323345"
      stroke-width="2.00437"
      stroke-miterlimit="10"
      stroke-linecap="round"
      stroke-linejoin="round"
    />
    <path
      d="M98.0987 70.433H115.952L116.892 72.881C117.038 73.2482 117.097 73.6154 117.097 73.9826V80.531H96.836V74.0438C96.836 73.6154 96.9241 73.2176 97.0709 72.8504L98.0987 70.433Z"
      fill="#145B34"
    />
    <path
      d="M105.146 70.433H108.817C110.197 70.433 111.401 71.4734 111.665 72.881C111.724 73.2482 111.753 73.6154 111.753 73.9826V76.6448C111.753 78.7868 110.079 80.5004 108.053 80.5004H105.939C103.883 80.5004 102.239 78.7562 102.239 76.6448V74.0132C102.239 73.5848 102.268 73.187 102.356 72.8198C102.591 71.4428 103.766 70.433 105.146 70.433Z"
      fill="#1B6E44"
    />
    <path
      d="M98.0987 70.433H115.952L116.892 72.881C117.038 73.2482 117.097 73.6154 117.097 73.9826V80.531H96.836V74.0438C96.836 73.6154 96.9241 73.2176 97.0709 72.8504L98.0987 70.433Z"
      stroke="#323345"
      stroke-width="2.00437"
      stroke-miterlimit="10"
      stroke-linecap="round"
      stroke-linejoin="round"
    />
    <path
      d="M92.2847 70.1269H121.942L119.27 67.4647H94.9568L92.2847 70.1269Z"
      stroke="#323345"
      stroke-width="2.00437"
      stroke-miterlimit="10"
      stroke-linecap="round"
      stroke-linejoin="round"
    />
    <path
      d="M96.8654 51.3691H117.626L119.27 67.4647H95.2211L96.8654 51.3691Z"
      fill="#145B34"
    />
    <path
      d="M100.976 51.3691H113.515L114.131 61.4671C114.337 64.7107 111.87 67.4647 108.758 67.4647H105.733C102.621 67.4647 100.154 64.7107 100.36 61.4671L100.976 51.3691Z"
      fill="#1B6E44"
    />
    <path
      d="M96.8654 51.3691H117.626L119.27 67.4647H95.2211L96.8654 51.3691Z"
      stroke="#323345"
      stroke-width="2.00437"
      stroke-miterlimit="10"
      stroke-linecap="round"
      stroke-linejoin="round"
    />
    <path
      d="M97.7757 49.0129C99.5082 49.0129 101.182 48.2479 102.356 46.9015C103.531 45.5551 105.234 44.7289 107.113 44.7289C108.993 44.7289 110.696 45.5551 111.87 46.9015C113.045 48.2479 114.719 49.0129 116.451 49.0129H120.621V51.4609H93.606V49.0129H97.7757Z"
      fill="#145B34"
    />
    <path
      d="M97.7757 49.0129C99.5082 49.0129 101.182 48.2479 102.356 46.9015C103.531 45.5551 105.234 44.7289 107.113 44.7289C108.993 44.7289 110.696 45.5551 111.87 46.9015C113.045 48.2479 114.719 49.0129 116.451 49.0129H120.621V51.4609H93.606V49.0129H97.7757Z"
      stroke="#323345"
      stroke-width="2.00437"
      stroke-miterlimit="10"
      stroke-linecap="round"
      stroke-linejoin="round"
    />
    <path
      d="M111.9 76.7366C111.121 76.7366 110.49 76.079 110.49 75.2678C110.49 74.4566 111.121 73.799 111.9 73.799C112.678 73.799 113.309 74.4566 113.309 75.2678C113.309 76.079 112.678 76.7366 111.9 76.7366Z"
      fill="#323345"
    />
    <path
      d="M107.055 76.7366C106.276 76.7366 105.645 76.079 105.645 75.2678C105.645 74.4566 106.276 73.799 107.055 73.799C107.833 73.799 108.464 74.4566 108.464 75.2678C108.464 76.079 107.833 76.7366 107.055 76.7366Z"
      fill="#323345"
    />
    <path
      d="M102.21 76.7366C101.431 76.7366 100.8 76.079 100.8 75.2678C100.8 74.4566 101.431 73.799 102.21 73.799C102.988 73.799 103.619 74.4566 103.619 75.2678C103.619 76.079 102.988 76.7366 102.21 76.7366Z"
      fill="#323345"
    />
    <path
      d="M105.792 110.672C106.262 112.018 107.084 113.977 108.582 116.027C111.107 119.485 112.869 119.576 113.867 121.994C115.012 124.778 114.484 129.185 111.547 131.725C108.523 134.326 104.412 133.714 101.828 132.245C97.071 129.491 96.9829 123.371 96.9829 122.759C96.9829 117.679 100.477 112.875 105.792 110.672Z"
      fill="#FBAF41"
    />
    <path
      d="M104.911 114.344C105.528 115.537 106.526 117.251 108.141 118.934C110.637 121.535 112.135 121.474 113.133 123.371C114.366 125.696 114.131 129.583 111.782 131.878C109.11 134.448 105.175 133.652 102.914 132.337C98.4217 129.736 98.4804 123.922 98.4804 123.677C98.5979 119.699 101.123 116.057 104.911 114.344Z"
      fill="#CC8127"
    />
    <path
      d="M105.792 110.672C106.262 112.018 107.084 113.977 108.582 116.027C111.107 119.485 112.869 119.576 113.867 121.994C115.012 124.778 114.484 129.185 111.547 131.725C108.523 134.326 104.412 133.714 101.828 132.245C97.071 129.491 96.9829 123.371 96.9829 122.759C96.9829 117.679 100.477 112.875 105.792 110.672Z"
      stroke="#323345"
      stroke-width="1.33624"
      stroke-miterlimit="10"
      stroke-linecap="round"
      stroke-linejoin="round"
    />
    <path
      d="M99.2439 140.507C100.389 134.081 103.414 129.613 106.937 129.613C110.49 129.613 113.485 134.081 114.631 140.507H99.2439Z"
      fill="#1B6E44"
    />
    <path
      d="M106.937 132.245C104.001 132.245 101.388 134.54 99.7431 138.181C101.153 133.041 103.825 129.644 106.937 129.644C110.021 129.644 112.722 133.041 114.131 138.181C112.487 134.54 109.874 132.245 106.937 132.245Z"
      fill="#C8A82F"
    />
    <path
      d="M99.2439 140.507C100.389 134.081 103.414 129.613 106.937 129.613C110.49 129.613 113.485 134.081 114.631 140.507H99.2439Z"
      stroke="#323345"
      stroke-width="1.33624"
      stroke-miterlimit="10"
      stroke-linecap="round"
      stroke-linejoin="round"
    />
    <path
      d="M97.4234 137.814H116.216V140.629H97.4234V137.814Z"
      fill="#145B34"
    />
    <path
      d="M97.4234 137.814H116.216V140.629H97.4234V137.814Z"
      stroke="#323345"
      stroke-width="1.33624"
      stroke-miterlimit="10"
      stroke-linecap="round"
      stroke-linejoin="round"
    />
    <path
      d="M82.0072 65.231C80.3855 65.231 79.0708 63.861 79.0708 62.171C79.0708 60.481 80.3855 59.111 82.0072 59.111C83.6289 59.111 84.9436 60.481 84.9436 62.171C84.9436 63.861 83.6289 65.231 82.0072 65.231Z"
      fill="#323345"
    />
    <path
      d="M131.045 65.231C129.423 65.231 128.109 63.861 128.109 62.171C128.109 60.481 129.423 59.111 131.045 59.111C132.667 59.111 133.981 60.481 133.981 62.171C133.981 63.861 132.667 65.231 131.045 65.231Z"
      fill="#323345"
    />
    <path
      d="M84.1215 66.5467L83.4168 61.6813C83.3874 61.6813 83.358 61.6813 83.2993 61.6813C80.5097 61.6813 78.2487 59.3557 78.2487 56.4793C78.2487 54.0925 79.805 52.1035 81.8898 51.4915L77.5146 21.5035C76.1345 12.1093 83.1819 3.63306 92.4021 3.63306H107.113H121.825C131.045 3.63306 138.092 12.0787 136.712 21.5035L132.337 51.4915C134.363 51.9199 135.978 54.1231 135.978 56.4793C135.978 59.3557 133.717 61.6813 130.928 61.6813C130.898 61.6813 130.869 61.6813 130.81 61.6813L130.105 66.5467"
      stroke="#323345"
      stroke-width="2.67249"
      stroke-miterlimit="10"
      stroke-linecap="round"
      stroke-linejoin="round"
    />
    <path
      d="M103.091 6.01995H111.401C112.223 6.01995 112.898 5.31615 112.898 4.45935V2.25615C112.898 1.39935 112.223 0.695557 111.401 0.695557H103.091C102.268 0.695557 101.593 1.39935 101.593 2.25615V4.45935C101.593 5.31615 102.268 6.01995 103.091 6.01995Z"
      fill="#323345"
    />
    <path
      d="M93.3712 145.25H120.269L116.187 140.048H97.4234L93.3712 145.25Z"
      fill="#1B6E44"
    />
    <path
      opacity="0.59"
      d="M117.215 141.364C114.748 142.802 110.989 143.72 106.79 143.72C102.591 143.72 98.8328 142.802 96.3662 141.364L97.4233 140.048H116.187L117.215 141.364Z"
      fill="#C8A82F"
    />
    <path
      d="M93.3712 145.25H120.269L116.187 140.048H97.4234L93.3712 145.25Z"
      stroke="#323345"
      stroke-width="1.33624"
      stroke-miterlimit="10"
      stroke-linecap="round"
      stroke-linejoin="round"
    />
    <path
      d="M78.5423 142.312C81.1557 145.495 84.8262 147.239 88.9371 147.239H124.145C128.256 147.239 131.926 145.495 134.539 142.312C137.505 138.702 138.738 133.622 137.946 128.451L128.49 66.5468C127.874 62.4464 122.911 59.111 117.42 59.111H95.6615C90.1998 59.111 85.2373 62.4464 84.5913 66.5468L75.1067 128.451C74.3139 133.653 75.5765 138.702 78.5423 142.312Z"
      stroke="#323345"
      stroke-width="1.33624"
      stroke-miterlimit="10"
      stroke-linecap="round"
      stroke-linejoin="round"
    />
    <path
      d="M103.267 51.155H111.636C111.782 51.155 111.929 51.0326 111.929 50.849C111.929 49.319 110.755 48.095 109.286 48.095H105.616C104.148 48.095 102.973 49.319 102.973 50.849C102.973 51.0326 103.091 51.155 103.267 51.155Z"
      fill="#323345"
    />
    <path
      d="M105.821 119.699C105.733 120.28 105.675 121.045 105.763 121.902C105.821 122.851 106.027 123.677 106.233 124.289C106.526 122.973 107.348 121.81 107.466 121.872C107.466 121.872 107.466 121.872 107.466 121.902C107.525 122.178 108.905 123.983 109.169 124.381C109.874 125.482 110.02 127.839 108.787 129.063C107.73 130.103 105.968 130.042 104.794 129.43C102.826 128.389 102.445 125.666 102.768 123.861C103.267 121.229 105.44 119.913 105.821 119.699Z"
      fill="#FBAF41"
    />
    <path
      d="M105.821 119.699C105.733 120.28 105.675 121.045 105.763 121.902C105.821 122.851 106.027 123.677 106.233 124.289C106.526 122.973 107.348 121.81 107.466 121.872C107.466 121.872 107.466 121.872 107.466 121.902C107.525 122.178 108.905 123.983 109.169 124.381C109.874 125.482 110.02 127.839 108.787 129.063C107.73 130.103 105.968 130.042 104.794 129.43C102.826 128.389 102.445 125.666 102.768 123.861C103.267 121.229 105.44 119.913 105.821 119.699Z"
      stroke="#323345"
      stroke-width="1.33624"
      stroke-miterlimit="10"
      stroke-linecap="round"
      stroke-linejoin="round"
    />
    <defs>
      <radialGradient
        id="paint0_radial"
        cx="0"
        cy="0"
        r="1"
        gradientUnits="userSpaceOnUse"
        gradientTransform="translate(106.82 114.497) rotate(180) scale(156.894 163.498)"
      >
        <stop stop-color="#F29543" />
        <stop offset="0.1095" stop-color="#F09543" stop-opacity="0.8014" />
        <stop offset="0.1711" stop-color="#E79645" stop-opacity="0.6898" />
        <stop offset="0.2208" stop-color="#DA9747" stop-opacity="0.5997" />
        <stop offset="0.2641" stop-color="#C6994A" stop-opacity="0.5211" />
        <stop offset="0.3033" stop-color="#AC9B4E" stop-opacity="0.45" />
        <stop offset="0.3396" stop-color="#8D9E53" stop-opacity="0.3844" />
        <stop offset="0.3735" stop-color="#68A259" stop-opacity="0.3228" />
        <stop offset="0.4057" stop-color="#3CA661" stop-opacity="0.2645" />
        <stop offset="0.4353" stop-color="#0DAA68" stop-opacity="0.2108" />
        <stop offset="0.4413" stop-color="#02AB6A" stop-opacity="0.2" />
      </radialGradient>
      <radialGradient
        id="paint1_radial"
        cx="0"
        cy="0"
        r="1"
        gradientUnits="userSpaceOnUse"
        gradientTransform="translate(106.82 114.497) rotate(180) scale(43.8404 45.6858)"
      >
        <stop stop-color="#F29543" />
        <stop offset="0.1302" stop-color="#EB9847" stop-opacity="0.8637" />
        <stop offset="0.3179" stop-color="#D8A151" stop-opacity="0.667" />
        <stop offset="0.5405" stop-color="#B9AF61" stop-opacity="0.4339" />
        <stop offset="0.7638" stop-color="#92C176" stop-opacity="0.2" />
      </radialGradient>
      <radialGradient
        id="paint2_radial"
        cx="0"
        cy="0"
        r="1"
        gradientUnits="userSpaceOnUse"
        gradientTransform="translate(106.702 114.497) rotate(180) scale(16.7375 17.442)"
      >
        <stop offset="0.1237" stop-color="#F2CA91" />
        <stop offset="1" stop-color="#F2CA91" stop-opacity="0.3" />
      </radialGradient>
      <linearGradient
        id="paint3_linear"
        x1="106.879"
        y1="163.457"
        x2="106.879"
        y2="260"
        gradientUnits="userSpaceOnUse"
      >
        <stop stop-color="#292E42" stop-opacity="0.7" />
        <stop offset="1" stop-color="#151721" stop-opacity="0" />
      </linearGradient>
      <linearGradient
        id="paint4_linear"
        x1="106.879"
        y1="163.457"
        x2="106.879"
        y2="260"
        gradientUnits="userSpaceOnUse"
      >
        <stop stop-color="#292E42" stop-opacity="0.7" />
        <stop offset="1" stop-color="#151721" stop-opacity="0" />
      </linearGradient>
      <linearGradient
        id="paint5_linear"
        x1="106.879"
        y1="163.457"
        x2="106.879"
        y2="260"
        gradientUnits="userSpaceOnUse"
      >
        <stop stop-color="#292E42" stop-opacity="0.7" />
        <stop offset="1" stop-color="#151721" stop-opacity="0" />
      </linearGradient>
    </defs>
  </svg>
