  <svg
    class="w-48 h-48"
    width="300"
    height="300"
    viewBox="0 0 300 300"
    fill="none"
    xmlns="http://www.w3.org/2000/svg"
  >
    <circle cx="150" cy="150" r="150" fill="#C4C4C4" />
    <path
      opacity="0.4"
      d="M256.727 218.315L206.078 250.255C203.488 251.889 200.571 252.934 197.532 253.319C194.494 253.703 191.408 253.417 188.492 252.48L132.973 234.633C130.039 233.69 126.933 233.406 123.877 233.801C120.82 234.197 117.888 235.261 115.29 236.919L74.6438 262.866C73.3968 263.654 71.9833 264.14 70.5155 264.287C69.0476 264.433 67.5659 264.235 66.1878 263.709C64.8097 263.183 63.5732 262.343 62.5764 261.256C61.5795 260.169 60.8498 258.864 60.4451 257.445L25.364 134.461C24.8016 132.489 24.8929 130.388 25.6243 128.472C26.3557 126.556 27.6878 124.929 29.4213 123.833L80.6102 91.4816C83.4482 89.688 86.6452 88.5391 89.9757 88.1162C93.3062 87.6932 96.6889 88.0064 99.8852 89.0336L153.632 106.31C156.84 107.342 160.236 107.653 163.578 107.224C166.92 106.794 170.126 105.633 172.968 103.825L211.459 79.3303C212.705 78.537 214.12 78.0457 215.59 77.8956C217.06 77.7454 218.545 77.9405 219.927 78.4654C221.308 78.9902 222.548 79.8303 223.547 80.9188C224.547 82.0072 225.278 83.314 225.684 84.735L260.759 207.702C261.32 209.67 261.231 211.765 260.504 213.678C259.778 215.59 258.453 217.216 256.727 218.315Z"
      fill="#CCCDCF"
    />
    <path
      d="M258.704 205.263L215.454 232.786C212.612 234.594 209.405 235.755 206.064 236.185C202.722 236.614 199.326 236.302 196.118 235.271L142.367 217.995C139.171 216.967 135.788 216.654 132.458 217.077C129.128 217.5 125.93 218.649 123.092 220.442L76.6196 249.814C75.3726 250.602 73.9591 251.088 72.4913 251.235C71.0235 251.381 69.5417 251.184 68.1636 250.657C66.7855 250.131 65.549 249.291 64.5522 248.204C63.5554 247.117 62.8256 245.812 62.4209 244.394L27.3402 121.409C26.7777 119.437 26.8689 117.336 27.6002 115.42C28.3315 113.504 29.6636 111.877 31.3971 110.781L82.5835 78.4283C85.4215 76.6347 88.6185 75.486 91.949 75.0631C95.2795 74.6402 98.6622 74.9534 101.858 75.9806L155.609 93.2578C158.817 94.2889 162.212 94.6007 165.554 94.171C168.896 93.7413 172.102 92.5806 174.945 90.7716L213.435 66.2777C214.682 65.4844 216.097 64.9931 217.567 64.843C219.037 64.6928 220.522 64.8879 221.903 65.4128C223.284 65.9376 224.524 66.7777 225.524 67.8662C226.523 68.9546 227.255 70.2614 227.66 71.6824L262.736 194.649C263.297 196.616 263.208 198.712 262.482 200.625C261.755 202.538 260.43 204.164 258.704 205.263Z"
      fill="white"
    />
    <path
      d="M137.208 204.092L129.166 181.402L91.1609 194.413L79.277 159.98L48.3228 166.141L70.0254 242.223C70.1214 242.557 70.3236 242.85 70.6014 243.059C70.8792 243.267 71.2173 243.379 71.5645 243.377C71.859 243.376 72.1468 243.289 72.3925 243.127L116.576 215.203C116.383 214.978 137.208 204.092 137.208 204.092Z"
      fill="#EAF4F7"
    />
    <path
      d="M258.704 205.263L215.454 232.786C212.612 234.594 209.405 235.755 206.064 236.185C202.722 236.614 199.326 236.302 196.118 235.271L142.367 217.995C139.171 216.967 135.788 216.654 132.458 217.077C129.128 217.5 125.93 218.649 123.092 220.442L76.6196 249.814C75.3726 250.602 73.9591 251.088 72.4913 251.235C71.0235 251.381 69.5417 251.184 68.1636 250.657C66.7856 250.131 65.549 249.291 64.5522 248.204C63.5554 247.117 62.8256 245.812 62.4209 244.394L27.3402 121.409C26.7777 119.437 26.8689 117.336 27.6002 115.42C28.3315 113.504 29.6636 111.877 31.3971 110.781L82.5835 78.4283C85.4215 76.6347 88.6185 75.486 91.949 75.0631C95.2795 74.6402 98.6622 74.9534 101.858 75.9806L155.609 93.2578C158.817 94.2889 162.212 94.6007 165.554 94.171C168.896 93.7413 172.102 92.5806 174.945 90.7716L213.435 66.2777C214.682 65.4844 216.097 64.9931 217.567 64.843C219.037 64.6928 220.522 64.8879 221.903 65.4128C223.284 65.9376 224.524 66.7777 225.524 67.8662C226.523 68.9546 227.255 70.2614 227.66 71.6824L262.736 194.649C263.297 196.616 263.208 198.712 262.482 200.625C261.755 202.538 260.43 204.164 258.704 205.263V205.263Z"
      stroke="#363A5A"
      stroke-width="2.20705"
      stroke-miterlimit="10"
    />
    <path
      d="M97.3169 189.985C97.3169 189.985 97.9761 189.814 99.0869 189.489"
      stroke="#363A5A"
      stroke-width="1.47137"
      stroke-linecap="round"
      stroke-linejoin="round"
    />
    <path
      d="M104.434 187.778C112.245 185.06 123.707 180.074 123.845 174.177C124.029 166.341 86.0555 127.142 106.47 124.772C174.627 116.862 144.089 173.548 175.173 172.281C188.305 171.746 164.02 153.691 201.541 140.64C207.103 138.706 204.34 124.56 202.474 117.164"
      stroke="#363A5A"
      stroke-width="1.47137"
      stroke-linecap="round"
      stroke-linejoin="round"
      stroke-dasharray="3.74 5.61"
    />
    <path
      d="M201.752 114.449C201.442 113.34 201.237 112.684 201.237 112.684"
      stroke="#363A5A"
      stroke-width="1.47137"
      stroke-linecap="round"
      stroke-linejoin="round"
    />
    <path
      opacity="0.22"
      d="M94.9426 208.67C104.733 208.67 112.67 200.733 112.67 190.943C112.67 181.153 104.733 173.216 94.9426 173.216C85.1522 173.216 77.2156 181.153 77.2156 190.943C77.2156 200.733 85.1522 208.67 94.9426 208.67Z"
      fill="#3DC0CB"
    />
    <path
      d="M94.9427 201.223C100.62 201.223 105.222 196.62 105.222 190.943C105.222 185.266 100.62 180.663 94.9427 180.663C89.2654 180.663 84.663 185.266 84.663 190.943C84.663 196.62 89.2654 201.223 94.9427 201.223Z"
      fill="#3DC0CB"
    />
    <path
      d="M94.9428 180.663C93.3669 180.662 91.8119 181.024 90.3984 181.721C88.985 182.418 87.751 183.431 86.7921 184.682C88.813 183.308 91.2571 182.699 93.6862 182.965C96.1152 183.23 98.3703 184.352 100.047 186.13C101.724 187.907 102.712 190.224 102.835 192.665C102.958 195.105 102.208 197.509 100.719 199.447C102.537 198.211 103.912 196.425 104.641 194.351C105.37 192.277 105.414 190.024 104.768 187.922C104.122 185.821 102.819 183.982 101.051 182.675C99.2826 181.369 97.1421 180.664 94.9435 180.663H94.9428Z"
      fill="#64C7CF"
    />
    <path
      d="M94.9427 201.223C100.62 201.223 105.222 196.62 105.222 190.943C105.222 185.266 100.62 180.663 94.9427 180.663C89.2654 180.663 84.663 185.266 84.663 190.943C84.663 196.62 89.2654 201.223 94.9427 201.223Z"
      stroke="#363A5A"
      stroke-width="2.20705"
      stroke-miterlimit="10"
    />
    <path
      d="M99.6271 99.2258L129.111 104.814L122.34 92.914L97.9376 84.4003C96.5262 83.908 95.0317 83.6985 93.5393 83.7838C92.047 83.8692 90.586 84.2476 89.24 84.8976L35.6207 117.467C35.3327 117.651 35.1115 117.922 34.9897 118.241C34.8679 118.56 34.8519 118.91 34.9442 119.239L43.5915 149.554L67.1661 143.724L62.8366 126.358L99.6271 99.2258Z"
      fill="#87D5F7"
      stroke="#259AD6"
      stroke-width="1.47137"
      stroke-linecap="round"
      stroke-linejoin="round"
    />
    <path
      d="M146.352 174.298L163.176 178.534L171.311 197.177L153.186 194.206L146.352 174.298Z"
      fill="#FDDCBF"
      stroke="#ECB072"
      stroke-width="1.47137"
      stroke-linecap="round"
      stroke-linejoin="round"
    />
    <path
      d="M201.549 118.453C187.881 118.453 176.801 114.489 176.801 109.599C176.801 104.71 187.881 100.745 201.549 100.745C215.217 100.745 226.296 104.71 226.296 109.599C226.296 114.489 215.216 118.453 201.549 118.453Z"
      fill="#EAF4F7"
    />
    <path
      d="M209.314 168.618L240.186 155.179L252.382 192.335L202.391 220.744L193.229 194.885L212.776 183.889L209.314 168.618Z"
      fill="#FDDCBF"
      stroke="#ECB072"
      stroke-width="1.47137"
      stroke-linecap="round"
      stroke-linejoin="round"
    />
    <path
      d="M237.985 66.4294C237.985 45.1681 220.728 28.0473 199.817 29.0412C181.094 29.9314 165.133 45.8817 165.133 65.1353C165.133 92.9873 201.549 114.463 201.549 114.463C201.549 114.463 237.985 92.9873 237.985 66.4294Z"
      fill="#EE4637"
    />
    <path
      d="M214.849 103.686C211.978 105.926 208.437 107.137 204.795 107.124C201.153 107.112 197.621 105.876 194.765 103.617C183.987 95.0827 168.399 79.5881 168.399 61.3663C168.426 53.6295 170.985 46.1143 175.685 39.9689C169.221 46.4966 165.132 55.3925 165.132 65.1355C165.132 92.9874 201.549 114.463 201.549 114.463C201.549 114.463 216.4 105.709 227.14 92.4662C223.349 96.5281 219.239 100.28 214.849 103.686Z"
      fill="#CD3C27"
    />
    <path
      d="M199.817 29.0412C193.253 29.3794 186.905 31.5066 181.462 35.1926C185.748 33.1257 190.406 31.9393 195.158 31.7036C216.069 30.7105 233.326 47.8302 233.326 69.0919C233.326 89.9154 210.927 107.614 201.254 114.286C201.443 114.402 201.548 114.464 201.548 114.464C201.548 114.464 237.984 92.9873 237.984 66.4294C237.985 45.1681 220.728 28.0473 199.817 29.0412Z"
      fill="#F07378"
    />
    <path
      d="M201.549 80.7474C198.583 80.7474 195.685 79.8682 193.219 78.221C190.754 76.5737 188.832 74.2323 187.698 71.4929C186.563 68.7536 186.266 65.7392 186.844 62.8311C187.423 59.9229 188.851 57.2516 190.947 55.1549C193.044 53.0582 195.715 51.6304 198.623 51.0519C201.531 50.4734 204.546 50.7703 207.285 51.9049C210.025 53.0396 212.366 54.9612 214.013 57.4266C215.661 59.8919 216.54 62.7905 216.54 65.7556C216.54 69.7316 214.961 73.5447 212.149 76.3562C209.338 79.1677 205.525 80.7473 201.549 80.7474Z"
      fill="white"
    />
    <path
      d="M201.549 80.7474C198.583 80.7474 195.685 79.8682 193.219 78.221C190.754 76.5737 188.832 74.2323 187.698 71.4929C186.563 68.7536 186.266 65.7392 186.844 62.8311C187.423 59.9229 188.851 57.2516 190.947 55.1549C193.044 53.0582 195.715 51.6304 198.623 51.0519C201.531 50.4734 204.546 50.7703 207.285 51.9049C210.025 53.0396 212.366 54.9612 214.013 57.4266C215.661 59.8919 216.54 62.7905 216.54 65.7556C216.54 69.7316 214.961 73.5447 212.149 76.3562C209.338 79.1677 205.525 80.7473 201.549 80.7474Z"
      stroke="#363A5A"
      stroke-width="2.20705"
      stroke-miterlimit="10"
    />
    <path
      d="M237.985 66.4294C237.985 45.1681 220.728 28.0473 199.817 29.0412C181.094 29.9314 165.133 45.8817 165.133 65.1353C165.133 92.9873 201.549 114.463 201.549 114.463C201.549 114.463 237.985 92.9873 237.985 66.4294Z"
      stroke="#363A5A"
      stroke-width="2.20705"
      stroke-linecap="round"
      stroke-linejoin="round"
    />
  </svg>
