  <svg
    width="211"
    height="220"
    viewBox="0 0 211 220"
    fill="none"
    xmlns="http://www.w3.org/2000/svg"
  >
    <path
      d="M105.654 219.775C47.557 219.775 0.459702 170.695 0.459702 110.152C0.459702 49.6092 47.557 0.529419 105.654 0.529419C163.752 0.529419 210.849 49.6092 210.849 110.152C210.849 170.695 163.752 219.775 105.654 219.775Z"
      fill="#515362"
    />
    <path
      opacity="0.86"
      d="M104.138 191.976C59.7502 191.976 23.767 154.212 23.767 107.628C23.767 61.0438 59.7502 23.2799 104.138 23.2799C148.526 23.2799 184.509 61.0438 184.509 107.628C184.509 154.212 148.526 191.976 104.138 191.976Z"
      fill="#4C6166"
    />
    <path
      opacity="0.61"
      d="M104.138 170.443C70.9257 170.443 44.0021 142.386 44.0021 107.776C44.0021 73.1663 70.9257 45.1094 104.138 45.1094C137.35 45.1094 164.273 73.1663 164.273 107.776C164.273 142.386 137.35 170.443 104.138 170.443Z"
      fill="url(#paint0_radial)"
    />
    <path
      opacity="0.89"
      d="M104.138 152.119C80.6377 152.119 61.587 132.266 61.587 107.776C61.587 83.287 80.6377 63.4343 104.138 63.4343C127.638 63.4343 146.689 83.287 146.689 107.776C146.689 132.266 127.638 152.119 104.138 152.119Z"
      fill="url(#paint1_radial)"
    />
    <g opacity="0.4">
      <path
        opacity="0.4"
        d="M136.24 43.8917C141.352 39.0838 147.073 31.7197 148.107 24.9642H90.2904C91.325 31.7197 97.0459 39.0229 102.158 43.8917C103.862 45.4741 99.7846 80.4077 96.559 82.1118C85.1173 88.2586 75.8666 99.0917 70.9978 112.481H167.4C162.531 99.0917 153.281 88.2586 141.839 82.1118C138.613 80.4077 134.536 45.5349 136.24 43.8917Z"
        fill="#2B5621"
        stroke="#2B5621"
        stroke-width="4.8688"
        stroke-miterlimit="10"
        stroke-linecap="round"
        stroke-linejoin="round"
      />
      <path
        opacity="0.4"
        d="M127.111 112.542H111.287L119.199 170.42L127.111 112.542Z"
        fill="#2B5621"
        stroke="#2B5621"
        stroke-width="4.8688"
        stroke-miterlimit="10"
        stroke-linecap="round"
        stroke-linejoin="round"
      />
    </g>
    <path
      d="M122.242 37.9274C127.354 33.1195 133.075 25.7555 134.11 19H76.2926C77.3272 25.7555 83.0481 33.0586 88.1603 37.9274C89.8644 39.5098 85.7868 74.4434 82.5612 76.1475C71.1195 82.2944 61.8688 93.1275 57 106.517H153.402C148.533 93.1275 139.283 82.2944 127.841 76.1475C124.615 74.4434 120.538 39.5098 122.242 37.9274Z"
      fill="#F42222"
    />
    <path
      d="M126.242 37.9274C131.354 33.1195 137.075 25.7555 138.11 19H80.2926C81.3272 25.7555 87.0481 33.0586 92.1603 37.9274C93.8644 39.5098 89.7868 74.4434 86.5612 76.1475C75.1195 82.2944 65.8688 93.1274 61 106.517H157.402C152.533 93.1274 143.283 82.2944 131.841 76.1475C128.615 74.4434 124.538 39.5098 126.242 37.9274Z"
      fill="#F42222"
    />
    <path
      d="M127.841 76.1475C124.615 74.3826 120.538 39.5098 122.242 37.9274C127.354 33.1195 133.075 25.7555 134.11 19H129.423C128.389 25.7555 122.668 33.0586 117.556 37.9274C115.852 39.5098 119.929 74.4434 123.155 76.1475C134.597 82.2944 143.847 93.1275 148.716 106.517H153.402C148.473 93.1275 139.283 82.3552 127.841 76.1475Z"
      fill="#F42222"
    />
    <path
      d="M98.9935 19C90.2905 19 90.2905 19 90.2905 19C90.2905 19 87.5518 29.1636 97.2894 35.5539L94.0638 77.5473C94.0638 77.5473 78.7271 86.9197 77.1448 106.577H88.5864C88.5864 106.577 88.343 86.9197 98.6892 77.9125L100.515 35.6148C100.454 35.5539 96.1331 27.703 98.9935 19Z"
      fill="#FF7676"
    />
    <path
      d="M113.113 106.577H97.2893L105.201 164.455L113.113 106.577Z"
      fill="#E8E8E8"
    />
    <path
      d="M122.242 37.9274C127.354 33.1195 133.075 25.7555 134.11 19H76.2926C77.3272 25.7555 83.0481 33.0586 88.1603 37.9274C89.8644 39.5098 85.7868 74.4434 82.5612 76.1475C71.1195 82.2944 61.8688 93.1275 57 106.517H153.402C148.533 93.1275 139.283 82.2944 127.841 76.1475C124.615 74.4434 120.538 39.5098 122.242 37.9274Z"
      stroke="#102D3B"
      stroke-width="4.8688"
      stroke-miterlimit="10"
      stroke-linecap="round"
      stroke-linejoin="round"
    />
    <path
      d="M113.113 106.577H97.2893L105.201 164.455L113.113 106.577Z"
      stroke="#102D3B"
      stroke-width="4.8688"
      stroke-miterlimit="10"
      stroke-linecap="round"
      stroke-linejoin="round"
    />
    <defs>
      <radialGradient
        id="paint0_radial"
        cx="0"
        cy="0"
        r="1"
        gradientUnits="userSpaceOnUse"
        gradientTransform="translate(104.138 107.776) rotate(180) scale(152.279 158.689)"
      >
        <stop stop-color="#F29543" />
        <stop offset="0.1095" stop-color="#F09543" stop-opacity="0.8014" />
        <stop offset="0.1711" stop-color="#E79645" stop-opacity="0.6898" />
        <stop offset="0.2208" stop-color="#DA9747" stop-opacity="0.5997" />
        <stop offset="0.2641" stop-color="#C6994A" stop-opacity="0.5211" />
        <stop offset="0.3033" stop-color="#AC9B4E" stop-opacity="0.45" />
        <stop offset="0.3396" stop-color="#8D9E53" stop-opacity="0.3844" />
        <stop offset="0.3735" stop-color="#68A259" stop-opacity="0.3228" />
        <stop offset="0.4057" stop-color="#3CA661" stop-opacity="0.2645" />
        <stop offset="0.4353" stop-color="#0DAA68" stop-opacity="0.2108" />
        <stop offset="0.4413" stop-color="#02AB6A" stop-opacity="0.2" />
      </radialGradient>
      <radialGradient
        id="paint1_radial"
        cx="0"
        cy="0"
        r="1"
        gradientUnits="userSpaceOnUse"
        gradientTransform="translate(104.138 107.776) rotate(180) scale(42.551 44.3421)"
      >
        <stop stop-color="#F29543" />
        <stop offset="0.1302" stop-color="#EB9847" stop-opacity="0.8637" />
        <stop offset="0.3179" stop-color="#D8A151" stop-opacity="0.667" />
        <stop offset="0.5405" stop-color="#B9AF61" stop-opacity="0.4339" />
        <stop offset="0.7638" stop-color="#92C176" stop-opacity="0.2" />
      </radialGradient>
    </defs>
  </svg>
