<svg width="260" height="172" viewBox="0 0 260 172" fill="none" xmlns="http://www.w3.org/2000/svg">
<path d="M145.656 131.441L196.74 26.6511L146.172 2.00006L95.0885 106.79L145.656 131.441Z" fill="#77BA85"/>
<path d="M145.656 131.441L196.74 26.6511L146.172 2.00006L95.0885 106.79L145.656 131.441Z" stroke="#474747" stroke-width="2.323" stroke-miterlimit="10" stroke-linecap="round" stroke-linejoin="round"/>
<path d="M176.728 24.0417L160.545 16.1436C157.486 22.4544 149.898 25.0484 143.587 21.9898L103.709 103.759L142.696 122.769L182.574 40.9996C176.264 37.941 173.631 30.3526 176.728 24.0417Z" fill="#F6F9EA"/>
<path d="M176.728 24.0417L160.545 16.1436C157.486 22.4544 149.898 25.0484 143.587 21.9898L103.709 103.759L142.696 122.769L182.574 40.9996C176.264 37.941 173.631 30.3526 176.728 24.0417Z" stroke="#474747" stroke-width="2.323" stroke-miterlimit="10" stroke-linecap="round" stroke-linejoin="round"/>
<path d="M188.127 29.6018L149.148 10.6003L103.714 103.801L142.693 122.803L188.127 29.6018Z" stroke="#474747" stroke-width="2.323" stroke-miterlimit="10" stroke-linecap="round" stroke-linejoin="round"/>
<path d="M149.781 71.8179C157.116 71.8179 163.061 65.8723 163.061 58.5381C163.061 51.2039 157.116 45.2583 149.781 45.2583C142.447 45.2583 136.502 51.2039 136.502 58.5381C136.502 65.8723 142.447 71.8179 149.781 71.8179Z" fill="#77BA85"/>
<path d="M149.781 71.8179C157.116 71.8179 163.061 65.8723 163.061 58.5381C163.061 51.2039 157.116 45.2583 149.781 45.2583C142.447 45.2583 136.502 51.2039 136.502 58.5381C136.502 65.8723 142.447 71.8179 149.781 71.8179Z" stroke="#474747" stroke-width="2.323" stroke-miterlimit="10" stroke-linecap="round" stroke-linejoin="round"/>
<path opacity="0.15" d="M2 170.7H258.304" stroke="#474747" stroke-width="2.323" stroke-miterlimit="10" stroke-linecap="round" stroke-linejoin="round"/>
<path d="M153.15 170.7H71.845C59.0298 170.7 48.615 160.285 48.615 147.47V56.0989C48.615 43.2837 59.0298 32.8689 71.845 32.8689H153.15C165.965 32.8689 176.38 43.2837 176.38 56.0989V147.47C176.38 160.324 166.004 170.7 153.15 170.7Z" fill="#F58870"/>
<path d="M153.15 170.7H71.845C59.0298 170.7 48.615 160.285 48.615 147.47V56.0989C48.615 43.2837 59.0298 32.8689 71.845 32.8689H153.15C165.965 32.8689 176.38 43.2837 176.38 56.0989V147.47C176.38 160.324 166.004 170.7 153.15 170.7Z" fill="#F58870"/>
<path d="M153.15 166.015H71.845C59.0298 166.015 48.615 155.601 48.615 142.785V147.47C48.615 160.285 59.0298 170.7 71.845 170.7H153.15C165.965 170.7 176.38 160.285 176.38 147.47V142.785C176.38 155.601 166.004 166.015 153.15 166.015Z" fill="#DD7868"/>
<path d="M153.15 32.8689H71.845C59.0298 32.8689 48.615 42.4319 48.615 54.2018V59.1962C48.615 47.4264 59.0298 37.8633 71.845 37.8633H153.15C165.965 37.8633 176.38 47.4264 176.38 59.1962V54.2018C176.38 42.4319 166.004 32.8689 153.15 32.8689Z" fill="#FFA399"/>
<path opacity="0.3" d="M126.048 89.5888H105.141C101.308 89.5888 98.1722 86.4527 98.1722 82.6198V39.8379C98.1722 36.0049 101.308 32.8689 105.141 32.8689H133.017V82.6198C133.017 86.4527 129.92 89.5888 126.048 89.5888Z" fill="#474747" stroke="#474747" stroke-width="2.323" stroke-miterlimit="10" stroke-linecap="round" stroke-linejoin="round"/>
<path d="M153.15 170.7H71.845C59.0298 170.7 48.615 160.285 48.615 147.47V56.0989C48.615 43.2837 59.0298 32.8689 71.845 32.8689H153.15C165.965 32.8689 176.38 43.2837 176.38 56.0989V147.47C176.38 160.324 166.004 170.7 153.15 170.7Z" stroke="#474747" stroke-width="2.323" stroke-miterlimit="10" stroke-linecap="round" stroke-linejoin="round"/>
<g opacity="0.46">
<path opacity="0.46" d="M57.1327 146.89V56.6799C57.1327 48.5494 63.7145 41.9675 71.845 41.9675H153.15C161.28 41.9675 167.862 48.5494 167.862 56.6799V146.851C167.862 154.981 161.28 161.563 153.15 161.563H71.845C63.7145 161.602 57.1327 155.02 57.1327 146.89Z" stroke="#474747" stroke-width="1.54867" stroke-linecap="round" stroke-linejoin="round" stroke-dasharray="5.4 5.4"/>
</g>
<path d="M122.951 85.33H102.044C98.2111 85.33 95.0751 82.194 95.0751 78.361V31.1267C95.0751 27.2938 98.2111 24.1577 102.044 24.1577H122.951C126.784 24.1577 129.92 27.2938 129.92 31.1267V78.361C129.92 82.194 126.823 85.33 122.951 85.33Z" fill="#F79765"/>
<path d="M122.951 82.1165H102.044C98.2111 82.1165 95.0751 78.9804 95.0751 75.1475V78.3609C95.0751 82.1939 98.2111 85.3299 102.044 85.3299H122.951C126.784 85.3299 129.92 82.1939 129.92 78.3609V75.1475C129.92 78.9804 126.823 82.1165 122.951 82.1165Z" fill="#E27444"/>
<path d="M122.951 24.1577H102.044C98.2111 24.1577 95.0751 27.2938 95.0751 31.1267V33.7594C95.0751 29.9265 98.2111 26.7904 102.044 26.7904H122.951C126.784 26.7904 129.92 29.9265 129.92 33.7594V31.1267C129.92 27.2938 126.823 24.1577 122.951 24.1577Z" fill="#FFB797"/>
<path d="M122.951 85.33H102.044C98.2111 85.33 95.0751 82.194 95.0751 78.361V31.1267C95.0751 27.2938 98.2111 24.1577 102.044 24.1577H122.951C126.784 24.1577 129.92 27.2938 129.92 31.1267V78.361C129.92 82.194 126.823 85.33 122.951 85.33Z" stroke="#474747" stroke-width="2.323" stroke-miterlimit="10" stroke-linecap="round" stroke-linejoin="round"/>
<path opacity="0.3" d="M113.659 75.341C118.619 75.341 122.641 71.3195 122.641 66.3587C122.641 61.398 118.619 57.3765 113.659 57.3765C108.698 57.3765 104.676 61.398 104.676 66.3587C104.676 71.3195 108.698 75.341 113.659 75.341Z" fill="#474747" stroke="#474747" stroke-width="2.323" stroke-miterlimit="10" stroke-linecap="round" stroke-linejoin="round"/>
<g opacity="0.46">
<path opacity="0.46" d="M102.044 80.684C100.766 80.684 99.7206 79.6387 99.7206 78.361V31.1267C99.7206 29.8491 100.766 28.8037 102.044 28.8037H122.951C124.228 28.8037 125.274 29.8491 125.274 31.1267V78.361C125.274 79.6387 124.228 80.684 122.951 80.684H102.044Z" stroke="#474747" stroke-width="1.54867" stroke-linecap="round" stroke-linejoin="round" stroke-dasharray="3.81 3.81"/>
</g>
<path d="M112.497 73.018C117.458 73.018 121.48 68.9965 121.48 64.0357C121.48 59.075 117.458 55.0535 112.497 55.0535C107.537 55.0535 103.515 59.075 103.515 64.0357C103.515 68.9965 107.537 73.018 112.497 73.018Z" fill="#8F6D5D"/>
<path d="M112.497 73.018C117.458 73.018 121.48 68.9965 121.48 64.0357C121.48 59.075 117.458 55.0535 112.497 55.0535C107.537 55.0535 103.515 59.075 103.515 64.0357C103.515 68.9965 107.537 73.018 112.497 73.018Z" stroke="#474747" stroke-width="2.323" stroke-miterlimit="10" stroke-linecap="round" stroke-linejoin="round"/>
<g opacity="0.6">
<path opacity="0.6" d="M116.292 59.4286C116.601 60.8998 114.859 61.829 112.304 62.371C109.71 62.8743 107.387 62.9518 107.077 61.7129C106.767 60.5126 108.51 58.2283 111.065 57.4927C113.659 56.7571 115.982 57.996 116.292 59.4286Z" fill="#FFFCEE"/>
</g>
<path d="M241.773 170.7H214.671C213.122 170.7 211.845 169.422 211.845 167.874V165.977C211.845 164.428 213.122 163.15 214.671 163.15H241.773C243.321 163.15 244.599 164.428 244.599 165.977V167.874C244.599 169.461 243.321 170.7 241.773 170.7Z" fill="#FDB740"/>
<path opacity="0.88" d="M241.772 163.963H214.67C213.122 163.963 211.844 165.241 211.844 166.79V167.874C211.844 166.325 213.122 165.047 214.67 165.047H241.772C243.321 165.047 244.598 166.325 244.598 167.874V166.79C244.598 165.241 243.321 163.963 241.772 163.963Z" fill="#FFF3C0"/>
<path d="M241.772 169.848H214.67C213.122 169.848 211.844 168.571 211.844 167.022V165.938C211.844 167.487 213.122 168.764 214.67 168.764H241.772C243.321 168.764 244.598 167.487 244.598 165.938V167.022C244.598 168.609 243.321 169.848 241.772 169.848Z" fill="#F29E25"/>
<path d="M241.773 170.7H214.671C213.122 170.7 211.845 169.422 211.845 167.874V165.977C211.845 164.428 213.122 163.15 214.671 163.15H241.773C243.321 163.15 244.599 164.428 244.599 165.977V167.874C244.599 169.461 243.321 170.7 241.773 170.7Z" stroke="#474747" stroke-width="2.323" stroke-miterlimit="10" stroke-linecap="round" stroke-linejoin="round"/>
<path d="M246.302 163.189H219.201C217.652 163.189 216.375 161.911 216.375 160.363V158.465C216.375 156.917 217.652 155.639 219.201 155.639H246.302C247.851 155.639 249.129 156.917 249.129 158.465V160.363C249.09 161.95 247.851 163.189 246.302 163.189Z" fill="#FDB740"/>
<path opacity="0.88" d="M246.302 156.452H219.2C217.652 156.452 216.374 157.73 216.374 159.279V160.363C216.374 158.814 217.652 157.536 219.2 157.536H246.302C247.851 157.536 249.128 158.814 249.128 160.363V159.279C249.09 157.73 247.851 156.452 246.302 156.452Z" fill="#FFF3C0"/>
<path d="M246.302 162.337H219.2C217.652 162.337 216.374 161.059 216.374 159.511V158.427C216.374 159.975 217.652 161.253 219.2 161.253H246.302C247.851 161.253 249.128 159.975 249.128 158.427V159.511C249.09 161.098 247.851 162.337 246.302 162.337Z" fill="#F29E25"/>
<path d="M246.302 163.189H219.201C217.652 163.189 216.375 161.911 216.375 160.363V158.465C216.375 156.917 217.652 155.639 219.201 155.639H246.302C247.851 155.639 249.129 156.917 249.129 158.465V160.363C249.09 161.95 247.851 163.189 246.302 163.189Z" stroke="#474747" stroke-width="2.323" stroke-miterlimit="10" stroke-linecap="round" stroke-linejoin="round"/>
<path d="M241.773 155.678H214.671C213.122 155.678 211.845 154.401 211.845 152.852V150.955C211.845 149.406 213.122 148.129 214.671 148.129H241.773C243.321 148.129 244.599 149.406 244.599 150.955V152.852C244.599 154.439 243.321 155.678 241.773 155.678Z" fill="#FDB740"/>
<path opacity="0.88" d="M241.772 148.98H214.67C213.122 148.98 211.844 150.258 211.844 151.807V152.891C211.844 151.342 213.122 150.064 214.67 150.064H241.772C243.321 150.064 244.598 151.342 244.598 152.891V151.807C244.598 150.219 243.321 148.98 241.772 148.98Z" fill="#FFF3C0"/>
<path d="M241.772 154.865H214.67C213.122 154.865 211.844 153.588 211.844 152.039V150.955C211.844 152.504 213.122 153.781 214.67 153.781H241.772C243.321 153.781 244.598 152.504 244.598 150.955V152.039C244.598 153.588 243.321 154.865 241.772 154.865Z" fill="#F29E25"/>
<path d="M241.773 155.678H214.671C213.122 155.678 211.845 154.401 211.845 152.852V150.955C211.845 149.406 213.122 148.129 214.671 148.129H241.773C243.321 148.129 244.599 149.406 244.599 150.955V152.852C244.599 154.439 243.321 155.678 241.773 155.678Z" stroke="#474747" stroke-width="2.323" stroke-miterlimit="10" stroke-linecap="round" stroke-linejoin="round"/>
<path d="M211.109 150.025L192.602 169.81C191.557 170.932 189.776 171.01 188.614 169.926L187.259 168.648C186.136 167.603 186.059 165.822 187.143 164.66L205.65 144.876C206.695 143.753 208.476 143.676 209.637 144.76L210.992 146.037C212.077 147.122 212.154 148.864 211.109 150.025Z" fill="#FDB740"/>
<path opacity="0.88" d="M206.192 145.418L187.685 165.202C186.64 166.325 186.679 168.106 187.801 169.19L188.614 169.926C187.492 168.88 187.414 167.099 188.498 165.938L207.005 146.154C208.05 145.031 209.831 144.953 210.993 146.037L210.18 145.302C209.018 144.218 207.237 144.295 206.192 145.418Z" fill="#FFF3C0"/>
<path d="M210.489 149.445L191.983 169.229C190.937 170.352 189.156 170.429 187.995 169.345L187.182 168.609C188.305 169.655 190.086 169.616 191.17 168.493L209.676 148.709C210.722 147.586 210.683 145.805 209.56 144.721L210.373 145.457C211.457 146.541 211.535 148.322 210.489 149.445Z" fill="#F29E25"/>
<path d="M211.109 150.025L192.602 169.81C191.557 170.932 189.776 171.01 188.614 169.926L187.259 168.648C186.136 167.603 186.059 165.822 187.143 164.66L205.65 144.876C206.695 143.753 208.476 143.676 209.637 144.76L210.992 146.037C212.077 147.122 212.154 148.864 211.109 150.025Z" stroke="#474747" stroke-width="2.323" stroke-miterlimit="10" stroke-linecap="round" stroke-linejoin="round"/>
</svg>
