<svg
    width="108"
    height="108"
    viewBox="0 0 108 108"
    fill="none"
    xmlns="http://www.w3.org/2000/svg"
  >
    <g filter="url(#filter0_d)">
      <circle cx="54" cy="50" r="50" fill="#F5FF63" />
      <circle cx="54" cy="50" r="49" stroke="white" stroke-width="2" />
    </g>
    <path
      d="M44.4803 28.8445L44.4874 28.5765L44.268 28.4223C43.2322 27.6944 42.3524 26.7669 41.6801 25.6942L41.6781 25.6911C40.9576 24.5598 40.2919 23.1342 39.8069 21.7743C39.3175 20.4023 39.0323 19.153 39.0323 18.364C39.0323 14.9639 39.7742 12.2205 40.9636 10.445L40.9636 10.4448C41.6415 9.43214 42.4187 8.95184 43.0106 8.72035C43.309 8.60364 43.5639 8.54888 43.7398 8.52325C43.8276 8.51045 43.8953 8.50498 43.9382 8.50266C43.9596 8.50149 43.9748 8.50112 43.9832 8.501L43.9901 8.50095L44.0075 8.50136L44.0249 8.50034C44.0254 8.50032 44.0262 8.5003 44.0272 8.50027C44.0315 8.50014 44.0404 8.49996 44.0533 8.50001C44.0793 8.50009 44.122 8.50109 44.1791 8.50524C44.2936 8.51355 44.4655 8.53448 44.6786 8.58584C45.1014 8.68777 45.6878 8.90985 46.3118 9.39505C47.4485 10.3843 48.3931 11.5748 49.098 12.9068L49.098 12.9068L49.0997 12.9098C49.8472 14.2987 51.6071 17.7527 52.3023 21.3067L52.3026 21.3082C52.6339 22.9734 52.7102 24.6714 52.6081 26.1175C52.5047 27.5823 52.2228 28.7236 51.8863 29.315L51.8855 29.3164C51.3197 30.3179 50.3619 30.6396 49.468 30.6973C49.0225 30.726 48.6111 30.6866 48.3093 30.6391C48.1593 30.6154 48.0386 30.5901 47.9569 30.5711C47.9161 30.5617 47.8853 30.5538 47.8656 30.5486L47.8446 30.543L47.8413 30.542L47.841 30.542L47.8407 30.5419L47.8407 30.5419L47.8404 30.5418L47.1844 30.3502L47.2014 31.0344L47.7012 31.022C47.2014 31.0344 47.2014 31.0345 47.2014 31.0346L47.2014 31.0353L47.2014 31.0379L47.2017 31.0484L47.2027 31.0899L47.2067 31.2532L47.2222 31.8848C47.2356 32.4352 47.2549 33.2359 47.2786 34.237C47.326 36.2391 47.3912 39.0428 47.4618 42.249C47.6031 48.6617 47.7665 56.683 47.855 63.1212L47.855 63.1213C47.8793 64.8533 47.9256 66.4858 47.9669 67.9406C48.0309 70.197 48.0829 72.0259 48.0215 73.1364L48.0209 73.1458L48.0208 73.1553C48.0179 73.3218 47.9786 73.4857 47.9058 73.6354C47.8366 73.7776 47.7388 73.9039 47.6185 74.0062C47.5047 74.0785 47.2658 74.2197 46.9881 74.3766L46.7916 74.2917C46.1055 73.9955 45.4742 73.586 44.9241 73.0803C44.4417 72.5947 44.0526 71.8695 43.7784 71.2294C43.6432 70.9138 43.541 70.6308 43.4727 70.4273C43.4386 70.3257 43.4131 70.2444 43.3964 70.1893C43.3951 70.1851 43.3939 70.1811 43.3928 70.1772L44.4803 28.8445Z"
      fill="black"
      stroke="black"
    />
    <path
      d="M42.948 29.6822L42.9551 29.4144L42.736 29.2601C41.7007 28.5314 40.8208 27.6038 40.1476 26.5315L40.146 26.5289C39.4253 25.3963 38.7596 23.9707 38.2746 22.6108C37.7853 21.2388 37.5 19.9895 37.5 19.1994C37.5 15.8017 38.2418 13.0582 39.4313 11.2802C40.1092 10.2675 40.8864 9.78721 41.4783 9.55572C41.7767 9.43901 42.0316 9.38424 42.2075 9.35861C42.2953 9.34582 42.363 9.34035 42.4059 9.33802C42.4273 9.33686 42.4425 9.33649 42.4509 9.33637L42.4578 9.33632L42.4747 9.33671L42.4917 9.33575C42.4923 9.33573 42.493 9.33571 42.494 9.33568C42.4984 9.33557 42.5072 9.3354 42.5203 9.33546C42.5463 9.33559 42.589 9.33665 42.6462 9.34088C42.7607 9.34935 42.9328 9.37048 43.146 9.422C43.569 9.52421 44.1554 9.74633 44.7793 10.2303C45.9149 11.2219 46.8594 12.4131 47.566 13.7448L47.566 13.7449L47.5674 13.7475C48.3149 15.1364 50.0748 18.5904 50.77 22.1443L50.7703 22.1459C51.1016 23.8099 51.1779 25.5079 51.0758 26.954C50.9724 28.4189 50.6905 29.56 50.3541 30.1501L50.3532 30.1518C49.7873 31.1534 48.8294 31.4756 47.9354 31.5338C47.4899 31.5628 47.0785 31.5237 46.7767 31.4763C46.6267 31.4527 46.5059 31.4275 46.4243 31.4086C46.3835 31.3992 46.3527 31.3913 46.333 31.3862L46.312 31.3805L46.3087 31.3796L46.3084 31.3795L46.3081 31.3794L46.3081 31.3794L46.3078 31.3793L45.6521 31.1883L45.669 31.872L46.1689 31.8596C45.669 31.872 45.6691 31.8721 45.6691 31.8723L45.6691 31.8729L45.6691 31.8755L45.6694 31.886L45.6704 31.9275L45.6744 32.0908L45.6899 32.7225C45.7033 33.2728 45.7226 34.0735 45.7463 35.0746C45.7937 37.0767 45.8589 39.8803 45.9295 43.0863C46.0708 49.4987 46.2342 57.5196 46.3227 63.9565L46.3227 63.9566C46.3469 65.6799 46.3928 67.3039 46.4338 68.7524C46.4979 71.0198 46.5499 72.8569 46.4869 73.9711L46.4863 73.982L46.4862 73.9928C46.484 74.1593 46.4453 74.3232 46.3729 74.473C46.3046 74.6142 46.2078 74.7397 46.0889 74.8416C45.8138 75.0091 45.4972 75.0952 45.1759 75.0904C44.522 74.7974 43.9195 74.4008 43.3918 73.9157C42.9093 73.43 42.5203 72.7049 42.2461 72.0647C42.1109 71.7491 42.0087 71.4662 41.9404 71.2627C41.9063 71.1611 41.8808 71.0798 41.8641 71.0246C41.8628 71.0205 41.8616 71.0165 41.8605 71.0126L42.948 29.6822Z"
      fill="#333332"
      stroke="black"
    />
    <path
      d="M61.7802 39.0226L61.7717 39.3724L60.7832 79.6625C60.7869 79.6809 60.7919 79.7046 60.7983 79.7333C60.8159 79.8131 60.844 79.9306 60.8847 80.0754C60.9664 80.3661 61.0973 80.7619 61.2936 81.1829C61.6928 82.0389 62.3259 82.9221 63.2894 83.3157L61.7802 39.0226ZM61.7802 39.0226L61.4545 38.8947C60.0635 38.3487 58.8252 37.4742 57.8455 36.3458C57.5044 35.9371 57.2454 35.3384 57.069 34.8051C56.9827 34.5442 56.9201 34.3112 56.8792 34.144C56.8588 34.0606 56.844 33.9941 56.8344 33.9492C56.8309 33.933 56.8281 33.9197 56.826 33.9094M61.7802 39.0226L56.826 33.9094M56.826 33.9094L55.5918 18.0182C55.6208 18.0032 55.6514 17.9874 55.6832 17.9708C55.9101 17.8531 56.2052 17.6993 56.4769 17.5555M56.826 33.9094L63.2904 83.3161C63.4366 83.3756 63.5615 83.4781 63.6432 83.6211C63.7201 83.7556 63.7397 83.8924 63.7411 83.9972C63.7417 84.0364 63.7396 84.0755 63.7357 84.1139C63.778 84.0907 63.8209 84.0649 63.8644 84.0365C64.1149 83.8729 64.3549 83.6418 64.5687 83.3925C64.7807 83.1453 64.955 82.8942 65.0768 82.7036C65.127 82.625 65.1677 82.5576 65.1979 82.5061L64.311 41.489L64.292 40.6091L65.0575 41.0432L67.5115 42.4348L67.931 42.6726L67.7089 43.0996L67.7087 43.0998L67.7086 43.1001L67.7086 43.1001L67.7085 43.1003L67.7084 43.1005L67.7061 43.105L67.6943 43.1291C67.6884 43.1416 67.681 43.1574 67.6727 43.1759C67.734 43.142 67.7981 43.106 67.8636 43.0688C67.9632 43.0123 68.0572 42.9581 68.1479 42.9059C68.2173 42.8659 68.2848 42.827 68.3515 42.789C68.4814 42.7148 68.6248 42.634 68.7164 42.5948C68.8497 42.5354 69.0193 42.3443 69.1776 42.0677C69.2488 41.9433 69.3051 41.8241 69.3436 41.7357C69.3531 41.7138 69.3615 41.6939 69.3686 41.6767V25.2184C69.3676 25.2149 69.3666 25.2112 69.3655 25.2074C69.352 25.1607 69.3311 25.0917 69.3026 25.0068C69.2451 24.836 69.158 24.6058 69.0397 24.3652C68.7885 23.8543 68.4572 23.4222 68.0768 23.2754L68.0742 23.2744C67.8576 23.1893 67.619 23.2025 67.3397 23.3C67.0531 23.4 66.7691 23.5727 66.4845 23.756L66.4801 23.7588L66.48 23.7588C66.2492 23.904 66.0447 24.0317 65.8937 24.1256L67.1898 36.0075L67.2972 36.9918L66.4414 36.4939L64.4278 35.3225L64.1792 35.1779V34.8903V22.4202L64.1791 22.4181C64.1783 22.4077 64.177 22.3907 64.1747 22.3678C64.1702 22.3219 64.1621 22.253 64.1481 22.1672C64.1198 21.9946 64.0686 21.76 63.9776 21.5107C63.7924 21.0027 63.4693 20.5021 62.9097 20.2664L62.9075 20.2655L62.9075 20.2655C62.6339 20.1487 62.4968 20.1592 62.3872 20.1877C62.3166 20.206 62.2373 20.2381 62.1255 20.2915C62.0925 20.3073 62.0492 20.3287 62.0006 20.3528C61.9167 20.3943 61.817 20.4437 61.7277 20.485C61.3859 20.6492 61.0518 20.829 60.7266 21.0238M56.4769 17.5555C56.4767 17.5556 56.4765 17.5557 56.4763 17.5558L56.2436 17.1133L56.4775 17.5552C56.4773 17.5553 56.4771 17.5554 56.4769 17.5555ZM56.4769 17.5555C56.5222 17.5316 56.5642 17.5093 56.6034 17.4884C56.7955 17.3862 56.9232 17.3183 57.0655 17.274C57.2098 17.2291 57.3726 17.21 57.6178 17.2619L57.6194 17.2622C57.6317 17.2648 57.6869 17.2829 57.786 17.3447C57.8785 17.4023 57.9853 17.4828 58.0969 17.5805C58.323 17.7785 58.5351 18.0174 58.6639 18.2161L58.6693 18.2245L58.6752 18.2328C58.8217 18.44 58.9042 18.6856 58.9126 18.9392M58.9126 18.9392V32.3251V32.6109L59.1588 32.7559L61.3199 34.0294L62.1771 34.5346L62.0709 33.5453L60.7266 21.0238M58.9126 18.9392V18.9316H59.4126L58.9128 18.9456C58.9127 18.9435 58.9127 18.9413 58.9126 18.9392ZM60.7266 21.0238C60.6382 21.0767 60.5504 21.1308 60.4633 21.186L60.1958 20.7636L60.6929 20.7102L60.7266 21.0238ZM67.2337 43.3943C67.2338 43.3941 67.2364 43.3932 67.2411 43.392C67.236 43.3937 67.2337 43.3944 67.2337 43.3943Z"
      fill="#A08305"
      stroke="black"
    />
    <path
      d="M60.1849 40.1939L60.1933 39.844L59.8674 39.7163C58.476 39.1711 57.2376 38.2964 56.2586 37.1674C55.9177 36.76 55.6586 36.1618 55.4822 35.6287C55.3959 35.3679 55.3333 35.1351 55.2924 34.9679C55.272 34.8845 55.2572 34.818 55.2476 34.7731C55.2459 34.7653 55.2444 34.7582 55.243 34.7517V18.3786C55.2431 18.3773 55.2433 18.3755 55.2435 18.3732C55.2445 18.3627 55.2469 18.3441 55.2522 18.3209C55.2634 18.2718 55.2835 18.2202 55.3151 18.1786C55.3418 18.1436 55.385 18.1034 55.4731 18.077C55.5681 18.0487 55.7406 18.0294 56.0303 18.0902C56.0447 18.0935 56.1007 18.1127 56.1989 18.174C56.2917 18.2319 56.3987 18.3125 56.5103 18.4101C56.7365 18.6079 56.9485 18.8461 57.0771 19.0445L57.0824 19.0528L57.0881 19.0609C57.2353 19.2694 57.3186 19.516 57.3281 19.7709V33.1559V33.4418L57.5745 33.5868L59.7424 34.8626L60.496 35.3061V34.4317V21.3076C60.4994 21.2919 60.5051 21.2696 60.5137 21.2437C60.5349 21.1801 60.5667 21.1171 60.6086 21.0712C60.6435 21.0328 60.6897 21.0001 60.7722 20.9879C60.864 20.9743 61.0386 20.9812 61.3296 21.1039L61.3303 21.1042C61.8894 21.3388 62.2123 21.8389 62.3976 22.3473C62.4886 22.5967 62.5398 22.8316 62.5681 23.0044C62.5821 23.0902 62.5902 23.1592 62.5947 23.2052C62.597 23.2281 62.5983 23.2452 62.5991 23.2556L62.5992 23.2577V35.7279V36.0155L62.8478 36.1601L64.8614 37.3315L65.6128 37.7686V36.8993V24.4998C65.6181 24.4786 65.6264 24.4487 65.6387 24.4138C65.6676 24.3316 65.7117 24.2407 65.7725 24.1677C65.8294 24.0995 65.8954 24.0528 65.9825 24.0318C66.0721 24.0102 66.2351 24.0037 66.5053 24.1082C66.8864 24.2561 67.2178 24.6888 67.4688 25.1992C67.5871 25.4396 67.6742 25.6697 67.7317 25.8402C67.7603 25.9251 67.7812 25.994 67.7946 26.0406C67.7957 26.0444 67.7967 26.048 67.7977 26.0515V42.5122C67.7907 42.5295 67.7823 42.5492 67.7728 42.5711C67.7346 42.6592 67.6786 42.778 67.6077 42.9022C67.4517 43.1752 67.2844 43.3646 67.1518 43.426C66.9622 43.5007 66.7572 43.5281 66.5545 43.5057C66.3489 43.4831 66.1521 43.4099 65.9816 43.2928L65.9638 43.2807L65.9451 43.2701L63.4911 41.8785L62.7258 41.4445L62.7446 42.3241L63.6222 83.4285C63.621 83.4351 63.6196 83.4428 63.6179 83.4515C63.6098 83.4916 63.5958 83.5511 63.5731 83.6209C63.5264 83.7646 63.4498 83.9305 63.3311 84.0666C63.2188 84.1954 63.0658 84.302 62.8383 84.342C62.6026 84.3835 62.243 84.361 61.7127 84.1446L61.5238 84.6075L61.7127 84.1445C60.7487 83.7512 60.1159 82.8679 59.7172 82.0117C59.5211 81.5907 59.3904 81.1949 59.309 80.9042C59.2684 80.7594 59.2404 80.6419 59.2228 80.5621C59.2165 80.5333 59.2115 80.5095 59.2078 80.4911L60.1849 40.1939ZM61.5238 20.6431C63.0062 21.2652 63.0992 23.2424 63.0992 23.2424L61.5238 20.6431Z"
      fill="#F9D026"
      stroke="black"
    />
    <path
      d="M35 85.248V87.96H28.016V92.256H33.368V94.92H28.016V102H24.656V85.248H35ZM43.2866 102.216C42.0066 102.216 40.8546 101.936 39.8306 101.376C38.8066 100.8 37.9986 99.992 37.4066 98.952C36.8306 97.912 36.5426 96.712 36.5426 95.352C36.5426 93.992 36.8386 92.792 37.4306 91.752C38.0386 90.712 38.8626 89.912 39.9026 89.352C40.9426 88.776 42.1026 88.488 43.3826 88.488C44.6626 88.488 45.8226 88.776 46.8626 89.352C47.9026 89.912 48.7186 90.712 49.3106 91.752C49.9186 92.792 50.2226 93.992 50.2226 95.352C50.2226 96.712 49.9106 97.912 49.2866 98.952C48.6786 99.992 47.8466 100.8 46.7906 101.376C45.7506 101.936 44.5826 102.216 43.2866 102.216ZM43.2866 99.288C43.8946 99.288 44.4626 99.144 44.9906 98.856C45.5346 98.552 45.9666 98.104 46.2866 97.512C46.6066 96.92 46.7666 96.2 46.7666 95.352C46.7666 94.088 46.4306 93.12 45.7586 92.448C45.1026 91.76 44.2946 91.416 43.3346 91.416C42.3746 91.416 41.5666 91.76 40.9106 92.448C40.2706 93.12 39.9506 94.088 39.9506 95.352C39.9506 96.616 40.2626 97.592 40.8866 98.28C41.5266 98.952 42.3266 99.288 43.2866 99.288ZM58.5913 102.216C57.3113 102.216 56.1593 101.936 55.1353 101.376C54.1113 100.8 53.3033 99.992 52.7113 98.952C52.1353 97.912 51.8473 96.712 51.8473 95.352C51.8473 93.992 52.1433 92.792 52.7353 91.752C53.3433 90.712 54.1673 89.912 55.2073 89.352C56.2473 88.776 57.4073 88.488 58.6873 88.488C59.9673 88.488 61.1273 88.776 62.1673 89.352C63.2073 89.912 64.0233 90.712 64.6153 91.752C65.2233 92.792 65.5273 93.992 65.5273 95.352C65.5273 96.712 65.2153 97.912 64.5912 98.952C63.9833 99.992 63.1513 100.8 62.0953 101.376C61.0553 101.936 59.8873 102.216 58.5913 102.216ZM58.5913 99.288C59.1993 99.288 59.7673 99.144 60.2953 98.856C60.8393 98.552 61.2713 98.104 61.5913 97.512C61.9113 96.92 62.0713 96.2 62.0713 95.352C62.0713 94.088 61.7353 93.12 61.0633 92.448C60.4073 91.76 59.5993 91.416 58.6393 91.416C57.6793 91.416 56.8713 91.76 56.2153 92.448C55.5753 93.12 55.2553 94.088 55.2553 95.352C55.2553 96.616 55.5673 97.592 56.1913 98.28C56.8313 98.952 57.6313 99.288 58.5913 99.288ZM67.1279 95.304C67.1279 93.96 67.3919 92.768 67.9199 91.728C68.4639 90.688 69.1999 89.888 70.1279 89.328C71.0559 88.768 72.0879 88.488 73.2239 88.488C74.0879 88.488 74.9119 88.68 75.6959 89.064C76.4799 89.432 77.1039 89.928 77.5679 90.552V84.24H80.9759V102H77.5679V100.032C77.1519 100.688 76.5679 101.216 75.8159 101.616C75.0639 102.016 74.1919 102.216 73.1999 102.216C72.0799 102.216 71.0559 101.928 70.1279 101.352C69.1999 100.776 68.4639 99.968 67.9199 98.928C67.3919 97.872 67.1279 96.664 67.1279 95.304ZM77.5919 95.352C77.5919 94.536 77.4319 93.84 77.1119 93.264C76.7919 92.672 76.3599 92.224 75.8159 91.92C75.2719 91.6 74.6879 91.44 74.0639 91.44C73.4399 91.44 72.8639 91.592 72.3359 91.896C71.8079 92.2 71.3759 92.648 71.0399 93.24C70.7199 93.816 70.5599 94.504 70.5599 95.304C70.5599 96.104 70.7199 96.808 71.0399 97.416C71.3759 98.008 71.8079 98.464 72.3359 98.784C72.8799 99.104 73.4559 99.264 74.0639 99.264C74.6879 99.264 75.2719 99.112 75.8159 98.808C76.3599 98.488 76.7919 98.04 77.1119 97.464C77.4319 96.872 77.5919 96.168 77.5919 95.352Z"
      fill="black"
    />
    <path
      d="M35 85.248H36V84.248H35V85.248ZM35 87.96V88.96H36V87.96H35ZM28.016 87.96V86.96H27.016V87.96H28.016ZM28.016 92.256H27.016V93.256H28.016V92.256ZM33.368 92.256H34.368V91.256H33.368V92.256ZM33.368 94.92V95.92H34.368V94.92H33.368ZM28.016 94.92V93.92H27.016V94.92H28.016ZM28.016 102V103H29.016V102H28.016ZM24.656 102H23.656V103H24.656V102ZM24.656 85.248V84.248H23.656V85.248H24.656ZM34 85.248V87.96H36V85.248H34ZM35 86.96H28.016V88.96H35V86.96ZM27.016 87.96V92.256H29.016V87.96H27.016ZM28.016 93.256H33.368V91.256H28.016V93.256ZM32.368 92.256V94.92H34.368V92.256H32.368ZM33.368 93.92H28.016V95.92H33.368V93.92ZM27.016 94.92V102H29.016V94.92H27.016ZM28.016 101H24.656V103H28.016V101ZM25.656 102V85.248H23.656V102H25.656ZM24.656 86.248H35V84.248H24.656V86.248ZM39.8306 101.376L39.3403 102.248L39.3507 102.253L39.8306 101.376ZM37.4066 98.952L36.5317 99.4365L36.5375 99.4467L37.4066 98.952ZM37.4306 91.752L36.5672 91.2473L36.5615 91.2573L37.4306 91.752ZM39.9026 89.352L40.3767 90.2325L40.3871 90.2268L39.9026 89.352ZM46.8626 89.352L46.378 90.2269L46.3885 90.2325L46.8626 89.352ZM49.3106 91.752L48.4414 92.2467L48.4473 92.2567L49.3106 91.752ZM49.2866 98.952L48.429 98.4375L48.4233 98.4473L49.2866 98.952ZM46.7906 101.376L47.2647 102.256L47.2694 102.254L46.7906 101.376ZM44.9906 98.856L45.4694 99.7339L45.4784 99.7289L44.9906 98.856ZM46.2866 97.512L47.1663 97.9875L46.2866 97.512ZM45.7586 92.448L45.0348 93.1381L45.043 93.1467L45.0515 93.1551L45.7586 92.448ZM40.9106 92.448L40.1868 91.7579L40.1864 91.7583L40.9106 92.448ZM40.8866 98.28L40.1458 98.9518L40.154 98.9608L40.1624 98.9697L40.8866 98.28ZM43.2866 101.216C42.1577 101.216 41.1733 100.971 40.3104 100.499L39.3507 102.253C40.5358 102.901 41.8555 103.216 43.2866 103.216V101.216ZM40.3208 100.504C39.458 100.019 38.7796 99.3427 38.2756 98.4573L36.5375 99.4467C37.2175 100.641 38.1551 101.581 39.3403 102.248L40.3208 100.504ZM38.2814 98.4675C37.7987 97.596 37.5426 96.5672 37.5426 95.352H35.5426C35.5426 96.8568 35.8625 98.228 36.5318 99.4365L38.2814 98.4675ZM37.5426 95.352C37.5426 94.1414 37.8046 93.1163 38.2996 92.2467L36.5615 91.2573C35.8725 92.4677 35.5426 93.8426 35.5426 95.352H37.5426ZM38.2939 92.2567C38.8111 91.372 39.5018 90.7035 40.3767 90.2325L39.4285 88.4715C38.2233 89.1205 37.2661 90.052 36.5673 91.2473L38.2939 92.2567ZM40.3871 90.2268C41.2675 89.7392 42.2587 89.488 43.3826 89.488V87.488C41.9464 87.488 40.6176 87.8128 39.4181 88.4772L40.3871 90.2268ZM43.3826 89.488C44.5064 89.488 45.4976 89.7392 46.3781 90.2268L47.3471 88.4772C46.1475 87.8128 44.8187 87.488 43.3826 87.488V89.488ZM46.3885 90.2325C47.2609 90.7023 47.9411 91.3675 48.4415 92.2467L50.1796 91.2573C49.4961 90.0565 48.5442 89.1217 47.3367 88.4715L46.3885 90.2325ZM48.4473 92.2567C48.9547 93.1246 49.2226 94.146 49.2226 95.352H51.2226C51.2226 93.838 50.8825 92.4594 50.1739 91.2473L48.4473 92.2567ZM49.2226 95.352C49.2226 96.5533 48.9489 97.5712 48.4291 98.4375L50.1441 99.4665C50.8723 98.2528 51.2226 96.8707 51.2226 95.352H49.2226ZM48.4233 98.4473C47.9069 99.3305 47.2077 100.009 46.3117 100.498L47.2694 102.254C48.4854 101.591 49.4502 100.653 50.1499 99.4567L48.4233 98.4473ZM46.3165 100.496C45.436 100.97 44.4335 101.216 43.2866 101.216V103.216C44.7316 103.216 46.0651 102.902 47.2647 102.256L46.3165 100.496ZM43.2866 100.288C44.06 100.288 44.7929 100.103 45.4694 99.7339L44.5117 97.9781C44.1323 98.1851 43.7292 98.288 43.2866 98.288V100.288ZM45.4784 99.7289C46.2014 99.3249 46.7635 98.7326 47.1663 97.9875L45.4069 97.0365C45.1696 97.4754 44.8678 97.7791 44.5027 97.9831L45.4784 99.7289ZM47.1663 97.9875C47.5832 97.2163 47.7666 96.3237 47.7666 95.352H45.7666C45.7666 96.0763 45.63 96.6237 45.4069 97.0365L47.1663 97.9875ZM47.7666 95.352C47.7666 93.9133 47.3807 92.656 46.4657 91.7409L45.0515 93.1551C45.4804 93.584 45.7666 94.2627 45.7666 95.352H47.7666ZM46.4823 91.7579C45.6355 90.8698 44.565 90.416 43.3346 90.416V92.416C44.0241 92.416 44.5696 92.6502 45.0348 93.1381L46.4823 91.7579ZM43.3346 90.416C42.1041 90.416 41.0336 90.8698 40.1868 91.7579L41.6343 93.1381C42.0995 92.6502 42.645 92.416 43.3346 92.416V90.416ZM40.1864 91.7583C39.3134 92.6751 38.9506 93.9258 38.9506 95.352H40.9506C40.9506 94.2502 41.2278 93.5649 41.6347 93.1377L40.1864 91.7583ZM38.9506 95.352C38.9506 96.7738 39.3028 98.0223 40.1458 98.9518L41.6273 97.6082C41.2224 97.1617 40.9506 96.4582 40.9506 95.352H38.9506ZM40.1624 98.9697C40.9984 99.8474 42.0635 100.288 43.2866 100.288V98.288C42.5896 98.288 42.0548 98.0566 41.6107 97.5903L40.1624 98.9697ZM55.1353 101.376L54.645 102.248L54.6554 102.253L55.1353 101.376ZM52.7113 98.952L51.8364 99.4365L51.8422 99.4467L52.7113 98.952ZM52.7353 91.752L51.8719 91.2473L51.8662 91.2573L52.7353 91.752ZM55.2072 89.352L55.6814 90.2325L55.6917 90.2268L55.2072 89.352ZM62.1673 89.352L61.6827 90.2269L61.6931 90.2325L62.1673 89.352ZM64.6152 91.752L63.7461 92.2467L63.752 92.2567L64.6152 91.752ZM64.5913 98.952L63.7337 98.4375L63.728 98.4473L64.5913 98.952ZM62.0952 101.376L62.5694 102.256L62.5741 102.254L62.0952 101.376ZM60.2952 98.856L60.7741 99.7339L60.7831 99.7289L60.2952 98.856ZM61.5913 97.512L62.471 97.9875L61.5913 97.512ZM61.0633 92.448L60.3395 93.1381L60.3477 93.1467L60.3561 93.1551L61.0633 92.448ZM56.2153 92.448L55.4915 91.7579L55.4911 91.7583L56.2153 92.448ZM56.1912 98.28L55.4505 98.9518L55.4587 98.9608L55.4671 98.9697L56.1912 98.28ZM58.5913 101.216C57.4623 101.216 56.478 100.971 55.6151 100.499L54.6554 102.253C55.8405 102.901 57.1602 103.216 58.5913 103.216V101.216ZM55.6255 100.504C54.7627 100.019 54.0843 99.3427 53.5803 98.4573L51.8422 99.4467C52.5222 100.641 53.4598 101.581 54.645 102.248L55.6255 100.504ZM53.586 98.4675C53.1034 97.596 52.8472 96.5672 52.8472 95.352H50.8472C50.8472 96.8568 51.1671 98.228 51.8365 99.4365L53.586 98.4675ZM52.8472 95.352C52.8472 94.1414 53.1093 93.1163 53.6043 92.2467L51.8662 91.2573C51.1772 92.4677 50.8472 93.8426 50.8472 95.352H52.8472ZM53.5985 92.2567C54.1157 91.372 54.8065 90.7035 55.6814 90.2325L54.7332 88.4715C53.528 89.1205 52.5708 90.052 51.872 91.2473L53.5985 92.2567ZM55.6917 90.2268C56.5722 89.7392 57.5634 89.488 58.6872 89.488V87.488C57.2511 87.488 55.9223 87.8128 54.7227 88.4772L55.6917 90.2268ZM58.6872 89.488C59.8111 89.488 60.8023 89.7392 61.6828 90.2268L62.6517 88.4772C61.4522 87.8128 60.1234 87.488 58.6872 87.488V89.488ZM61.6931 90.2325C62.5656 90.7023 63.2457 91.3675 63.7462 92.2467L65.4843 91.2573C64.8008 90.0565 63.8489 89.1217 62.6413 88.4715L61.6931 90.2325ZM63.752 92.2567C64.2593 93.1246 64.5273 94.146 64.5273 95.352H66.5273C66.5273 93.838 66.1872 92.4594 65.4785 91.2473L63.752 92.2567ZM64.5273 95.352C64.5273 96.5533 64.2536 97.5712 63.7338 98.4375L65.4487 99.4665C66.1769 98.2528 66.5273 96.8707 66.5273 95.352H64.5273ZM63.728 98.4473C63.2116 99.3305 62.5124 100.009 61.6164 100.498L62.5741 102.254C63.7901 101.591 64.7549 100.653 65.4545 99.4567L63.728 98.4473ZM61.6212 100.496C60.7407 100.97 59.7382 101.216 58.5913 101.216V103.216C60.0363 103.216 61.3698 102.902 62.5694 102.256L61.6212 100.496ZM58.5913 100.288C59.3647 100.288 60.0975 100.103 60.7741 99.7339L59.8164 97.9781C59.437 98.1851 59.0338 98.288 58.5913 98.288V100.288ZM60.7831 99.7289C61.506 99.3249 62.0682 98.7326 62.471 97.9875L60.7115 97.0365C60.4743 97.4754 60.1725 97.7791 59.8074 97.9831L60.7831 99.7289ZM62.471 97.9875C62.8878 97.2163 63.0713 96.3237 63.0713 95.352H61.0713C61.0713 96.0763 60.9347 96.6237 60.7115 97.0365L62.471 97.9875ZM63.0713 95.352C63.0713 93.9133 62.6854 92.656 61.7704 91.7409L60.3561 93.1551C60.7851 93.584 61.0713 94.2627 61.0713 95.352H63.0713ZM61.787 91.7579C60.9402 90.8698 59.8697 90.416 58.6393 90.416V92.416C59.3288 92.416 59.8743 92.6502 60.3395 93.1381L61.787 91.7579ZM58.6393 90.416C57.4088 90.416 56.3383 90.8698 55.4915 91.7579L56.939 93.1381C57.4042 92.6502 57.9497 92.416 58.6393 92.416V90.416ZM55.4911 91.7583C54.6181 92.6751 54.2553 93.9258 54.2553 95.352H56.2552C56.2552 94.2502 56.5324 93.5649 56.9394 93.1377L55.4911 91.7583ZM54.2553 95.352C54.2553 96.7738 54.6075 98.0223 55.4505 98.9518L56.932 97.6082C56.5271 97.1617 56.2552 96.4582 56.2552 95.352H54.2553ZM55.4671 98.9697C56.3031 99.8474 57.3682 100.288 58.5913 100.288V98.288C57.8943 98.288 57.3594 98.0566 56.9154 97.5903L55.4671 98.9697ZM67.9199 91.728L67.0338 91.2645L67.0283 91.2753L67.9199 91.728ZM70.1279 89.328L70.6446 90.1842L70.1279 89.328ZM75.6959 89.064L75.2561 89.9621L75.2635 89.9657L75.271 89.9692L75.6959 89.064ZM77.5679 90.552L76.7655 91.1487L78.5679 93.5727V90.552H77.5679ZM77.5679 84.24V83.24H76.5679V84.24H77.5679ZM80.9759 84.24H81.9759V83.24H80.9759V84.24ZM80.9759 102V103H81.9759V102H80.9759ZM77.5679 102H76.5679V103H77.5679V102ZM77.5679 100.032H78.5679V96.5878L76.7234 99.4965L77.5679 100.032ZM75.8159 101.616L75.3463 100.733L75.8159 101.616ZM70.1279 101.352L70.6553 100.502L70.1279 101.352ZM67.9199 98.928L67.0255 99.3752L67.0296 99.3834L67.0338 99.3915L67.9199 98.928ZM77.1119 93.264L76.2322 93.7395L76.2378 93.7496L77.1119 93.264ZM75.8159 91.92L75.3089 92.7819L75.3185 92.7875L75.3281 92.7929L75.8159 91.92ZM72.3359 91.896L71.837 91.0294H71.837L72.3359 91.896ZM71.0399 93.24L70.1702 92.7464L70.1658 92.7544L71.0399 93.24ZM71.0399 97.416L70.155 97.8817L70.1624 97.8958L70.1702 97.9096L71.0399 97.416ZM72.3359 98.784L71.8176 99.6393L71.8289 99.6459L72.3359 98.784ZM75.8159 98.808L76.3038 99.6809L76.3134 99.6755L76.323 99.6699L75.8159 98.808ZM77.1119 97.464L77.9862 97.9497L77.9916 97.9395L77.1119 97.464ZM68.1279 95.304C68.1279 94.0933 68.365 93.0604 68.8116 92.1807L67.0283 91.2753C66.4189 92.4755 66.1279 93.8267 66.1279 95.304H68.1279ZM68.806 92.1915C69.2725 91.2998 69.8863 90.6418 70.6446 90.1842L69.6113 88.4718C68.5136 89.1342 67.6554 90.0762 67.0338 91.2645L68.806 92.1915ZM70.6446 90.1842C71.409 89.7229 72.2609 89.488 73.2239 89.488V87.488C71.915 87.488 70.7028 87.8131 69.6113 88.4718L70.6446 90.1842ZM73.2239 89.488C73.9338 89.488 74.6075 89.6444 75.2561 89.9621L76.1358 88.1659C75.2164 87.7156 74.2421 87.488 73.2239 87.488V89.488ZM75.271 89.9692C75.9229 90.2752 76.4107 90.6716 76.7655 91.1487L78.3704 89.9553C77.7971 89.1844 77.0369 88.5888 76.1208 88.1588L75.271 89.9692ZM78.5679 90.552V84.24H76.5679V90.552H78.5679ZM77.5679 85.24H80.9759V83.24H77.5679V85.24ZM79.9759 84.24V102H81.9759V84.24H79.9759ZM80.9759 101H77.5679V103H80.9759V101ZM78.5679 102V100.032H76.5679V102H78.5679ZM76.7234 99.4965C76.409 99.9923 75.9605 100.406 75.3463 100.733L76.2855 102.499C77.1753 102.026 77.8949 101.384 78.4124 100.568L76.7234 99.4965ZM75.3463 100.733C74.761 101.044 74.0552 101.216 73.1999 101.216V103.216C74.3287 103.216 75.3668 102.988 76.2855 102.499L75.3463 100.733ZM73.1999 101.216C72.2613 101.216 71.4208 100.977 70.6553 100.502L69.6006 102.202C70.6911 102.879 71.8986 103.216 73.1999 103.216V101.216ZM70.6553 100.502C69.8906 100.028 69.2735 99.3583 68.806 98.4645L67.0338 99.3915C67.6543 100.578 68.5093 101.524 69.6006 102.202L70.6553 100.502ZM68.8144 98.4808C68.3656 97.5833 68.1279 96.5324 68.1279 95.304H66.1279C66.1279 96.7956 66.4182 98.1607 67.0255 99.3752L68.8144 98.4808ZM78.5919 95.352C78.5919 94.4061 78.4061 93.5344 77.9861 92.7784L76.2378 93.7496C76.4578 94.1456 76.5919 94.6659 76.5919 95.352H78.5919ZM77.9916 92.7885C77.5889 92.0434 77.0267 91.4511 76.3038 91.0471L75.3281 92.7929C75.6931 92.9969 75.995 93.3006 76.2322 93.7395L77.9916 92.7885ZM76.323 91.0581C75.6271 90.6488 74.8684 90.44 74.0639 90.44V92.44C74.5075 92.44 74.9167 92.5512 75.3089 92.7819L76.323 91.0581ZM74.0639 90.44C73.2692 90.44 72.5205 90.6358 71.837 91.0294L72.8349 92.7626C73.2073 92.5482 73.6106 92.44 74.0639 92.44V90.44ZM71.837 91.0294C71.1368 91.4325 70.5838 92.0178 70.1702 92.7464L71.9096 93.7336C72.1681 93.2782 72.4791 92.9675 72.8349 92.7626L71.837 91.0294ZM70.1658 92.7544C69.7473 93.5076 69.5599 94.3702 69.5599 95.304H71.5599C71.5599 94.6378 71.6926 94.1244 71.9141 93.7256L70.1658 92.7544ZM69.5599 95.304C69.5599 96.2395 69.7479 97.1082 70.155 97.8817L71.9249 96.9503C71.692 96.5078 71.5599 95.9685 71.5599 95.304H69.5599ZM70.1702 97.9096C70.5817 98.6346 71.1289 99.2218 71.8176 99.6392L72.8542 97.9288C72.4869 97.7062 72.1702 97.3814 71.9096 96.9224L70.1702 97.9096ZM71.8289 99.6459C72.5205 100.053 73.2707 100.264 74.0639 100.264V98.264C73.6412 98.264 73.2394 98.1553 72.843 97.9221L71.8289 99.6459ZM74.0639 100.264C74.8585 100.264 75.6105 100.068 76.3038 99.6809L75.3281 97.9351C74.9334 98.1556 74.5174 98.264 74.0639 98.264V100.264ZM76.323 99.6699C77.0276 99.2554 77.5834 98.6744 77.9861 97.9496L76.2378 96.9784C76.0004 97.4056 75.6923 97.7206 75.3089 97.9461L76.323 99.6699ZM77.9916 97.9395C78.4057 97.1735 78.5919 96.299 78.5919 95.352H76.5919C76.5919 96.037 76.4582 96.5705 76.2322 96.9885L77.9916 97.9395Z"
      fill="black"
    />
    <defs>
      <filter
        id="filter0_d"
        x="0"
        y="0"
        width="108"
        height="108"
        filterUnits="userSpaceOnUse"
        color-interpolation-filters="sRGB"
      >
        <feFlood flood-opacity="0" result="BackgroundImageFix" />
        <feColorMatrix
          in="SourceAlpha"
          type="matrix"
          values="0 0 0 0 0 0 0 0 0 0 0 0 0 0 0 0 0 0 127 0"
        />
        <feOffset dy="4" />
        <feGaussianBlur stdDeviation="2" />
        <feColorMatrix
          type="matrix"
          values="0 0 0 0 0 0 0 0 0 0 0 0 0 0 0 0 0 0 0.25 0"
        />
        <feBlend
          mode="normal"
          in2="BackgroundImageFix"
          result="effect1_dropShadow"
        />
        <feBlend
          mode="normal"
          in="SourceGraphic"
          in2="effect1_dropShadow"
          result="shape"
        />
      </filter>
    </defs>
  </svg>
