  <svg
    width="108"
    height="112"
    viewBox="0 0 108 112"
    fill="none"
    xmlns="http://www.w3.org/2000/svg"
  >
    <g filter="url(#filter0_d)">
      <circle cx="54" cy="54" r="50" fill="#F5FF63" />
      <circle cx="54" cy="54" r="49" stroke="white" stroke-width="2" />
    </g>
    <g clip-path="url(#clip0)">
      <path
        d="M33.4247 42.4344C33.4247 40.3137 34.9181 37.73 36.77 36.6641C37.7034 36.1208 38.5584 36.0779 39.1651 36.4438L40.6231 37.282L40.0948 38.1874C40.106 38.3118 40.1116 38.4406 40.1116 38.5738C40.1116 40.6945 38.6181 43.2763 36.7662 44.3441C36.645 44.4127 36.5204 44.475 36.3929 44.5308L35.8739 45.4194L34.485 44.6167C34.427 44.5879 34.3708 44.5555 34.317 44.5196L34.261 44.4878C33.742 44.1107 33.4247 43.407 33.4247 42.4344Z"
        fill="#161415"
      />
      <path
        d="M40.5832 42.7159C41.8981 40.4667 41.9112 38.0279 40.6126 37.2687C39.314 36.5096 37.1953 37.7175 35.8805 39.9667C34.5656 42.2159 34.5524 44.6547 35.851 45.4139C37.1497 46.173 39.2683 44.9651 40.5832 42.7159Z"
        fill="#FFDA1A"
      />
      <path
        d="M40.585 42.7171C41.8681 40.5222 41.8808 38.1422 40.6133 37.4012C39.3459 36.6603 37.2782 37.839 35.9951 40.0339C34.7119 42.2288 34.6992 44.6088 35.9667 45.3498C37.2342 46.0907 39.3019 44.912 40.585 42.7171Z"
        fill="#161415"
      />
      <path
        d="M43.2646 36.8413C43.2646 34.7206 44.758 32.137 46.6099 31.071C47.5433 30.5278 48.3983 30.4848 49.005 30.8489L50.4649 31.6871L49.9366 32.5925C49.9478 32.7157 49.9534 32.8445 49.9534 32.977C49.9534 35.0977 48.4599 37.6814 46.608 38.7492C46.4869 38.8178 46.3623 38.8801 46.2347 38.9359L45.7157 39.8245L44.3305 39.0218C44.2729 38.9923 44.2168 38.9599 44.1625 38.9247L44.1065 38.8911C43.5894 38.5158 43.2646 37.8139 43.2646 36.8413Z"
        fill="#161415"
      />
      <path
        d="M50.1034 37.0768C51.4061 34.8362 51.4134 32.4102 50.1198 31.658C48.8261 30.9059 46.7214 32.1126 45.4187 34.3532C44.116 36.5938 44.1087 39.0199 45.4024 39.772C46.696 40.5241 48.8007 39.3175 50.1034 37.0768Z"
        fill="#FFDA1A"
      />
      <path
        d="M50.1051 37.0784C51.3763 34.8919 51.3833 32.5243 50.1207 31.7902C48.858 31.0561 46.804 32.2336 45.5327 34.4201C44.2615 36.6066 44.2545 38.9742 45.5171 39.7083C46.7797 40.4424 48.8338 39.265 50.1051 37.0784Z"
        fill="#161415"
      />
      <path
        d="M59.6029 53.8834C59.6029 53.8834 80.205 64.5914 80.3524 65.7526C80.4999 66.9137 50.4705 84.0473 48.9061 84.0473C47.3417 84.0473 30.4658 74.9653 30.1783 73.2198C29.8908 71.4743 59.6029 53.8834 59.6029 53.8834Z"
        fill="#070607"
      />
      <path
        d="M61.4137 37.4818L61.9961 32.4825C63.204 32.3597 64.4189 32.6336 65.4572 33.2628L68.7465 35.2528L66.5231 45.5072L68.2406 46.2539L70.6954 36.0667L77.2087 40.3399L74.3805 49.0597L62.4815 42.2216C62.0884 41.9967 61.7661 41.6663 61.551 41.2678C61.3359 40.8693 61.2366 40.4185 61.2643 39.9665L61.4137 37.4818L59.1511 37.8813L58.845 40.1364C58.7846 40.5848 58.6118 41.0107 58.3425 41.3743C58.0732 41.738 57.7162 42.0275 57.3048 42.216L51.3105 44.9602L51.85 36.7799L49.6491 38.1669L49.0312 46.2968L43.6305 49.1139L43.6585 41.4021L42.0642 42.5222L41.7431 50.079L35.0992 53.8742L35.2859 46.1755L33.3593 47.57V54.8394L25.5729 60.0533L25.9276 61.9799L34.037 56.9507L33.8111 68.7116L35.3381 67.5915L35.4427 56.8928L41.8906 53.0883L41.6423 64.1136L43.2198 63.1802L43.4979 52.4181L48.9117 49.5227L48.2079 60.38L50.4798 59.0938L51.2135 47.7306L57.0976 44.9397C57.2563 44.8646 57.4317 44.8318 57.6069 44.8444C57.782 44.857 57.9509 44.9147 58.0972 45.0118C58.2435 45.1089 58.3622 45.2421 58.4418 45.3986C58.5215 45.555 58.5594 45.7294 58.5519 45.9048L58.1673 54.7404L28.4011 71.5958L27.4434 70.1472L26.8516 68.8404L25.5673 54.8506L24.7645 52.9632L24.1746 53.4561L25.4478 69.6973L30.3015 72.8279L34.7146 69.4303L33.1857 70.8192L34.4701 70.0053L56.1512 55.9482L55.6154 56.2693L57.0678 55.3975L58.5612 54.5015L59.5936 53.8873L60.2917 54.2942L60.4896 45.5296C60.4944 45.3205 60.5534 45.1163 60.6606 44.9368C60.7679 44.7574 60.9199 44.6087 61.1017 44.5055C61.2836 44.4023 61.4891 44.3479 61.6982 44.3478C61.9073 44.3477 62.1128 44.4017 62.2948 44.5047L66.2039 46.7206L64.3464 56.3907L65.9799 57.2569L67.871 47.4767L73.2138 50.3217L72.2244 60.6563L73.8802 61.5897L75.1179 51.4231L81.9392 55.9314L83.5391 55.1287L75.8068 50.2545L78.396 40.8812L83.5391 44.0548L84.9317 43.5396L64.0552 30.905L59.8026 32.2958L59.1381 37.9765"
        fill="#161415"
      />
      <path
        d="M84.2503 49.5731L82.9884 54.8487L75.1478 59.5381L75.8142 52.9614L74.1341 54.5556L73.5554 60.2195L67.4416 64.0707L67.5798 57.8393L65.9818 58.9407V64.6532L59.1381 68.7732V62.0994L57.5438 63.632L57.5774 69.8018L51.4748 72.9194C51.3195 73.0009 51.1466 73.0431 50.9712 73.0422C50.7958 73.0413 50.6233 72.9974 50.4688 72.9143C50.3144 72.8311 50.1827 72.7114 50.0853 72.5655C49.988 72.4196 49.9279 72.252 49.9104 72.0775L49.44 67.444L48.0436 67.3115L48.4805 72.4713C48.4923 72.6153 48.4645 72.7598 48.3999 72.8891C48.3354 73.0184 48.2366 73.1274 48.1143 73.2044C47.9921 73.2815 47.8511 73.3234 47.7066 73.3258C47.5621 73.3283 47.4198 73.291 47.295 73.2181L41.9653 70.1005L41.8738 64.9425L40.6025 64.2518L40.6361 69.5367L34.4421 65.4559L34.6904 60.2382L33.0326 59.5045L32.8142 64.6532L24.8597 60.408L25.0259 62.1572L32.7283 66.8093L32.5417 73.7781L34.7352 75.2324L34.4029 67.8809L40.6025 71.3643L40.7761 78.1315L42.2696 79.7015L42.0381 71.9617L47.478 74.7619C47.9185 74.988 48.2926 75.3247 48.5636 75.7391C48.8346 76.1534 48.9931 76.6311 49.0237 77.1253C49.1002 78.3555 49.1693 80.8066 49.2104 82.1657C49.213 82.2629 49.1898 82.359 49.1429 82.4442C49.0961 82.5294 49.0274 82.6005 48.9439 82.6504C48.8604 82.7002 48.7652 82.7268 48.668 82.7276C48.5708 82.7284 48.4751 82.7033 48.3908 82.6548C44.9765 80.6928 32.1683 73.3207 27.7925 70.5653C27.3949 70.3152 26.8591 68.8385 26.8591 68.8385H25.3246L25.5243 70.192C25.6116 70.8027 25.8384 71.385 26.1871 71.8939C26.5358 72.4029 26.9969 72.8246 27.5349 73.1266L49.3523 84.8501L81.3512 66.421L83.7631 55.9202L82.363 56.8536L80.2479 65.8423L74.1341 69.7029L75.1534 60.9195L73.4938 61.7913L72.4577 70.3787L67.0104 73.8659L67.2699 65.2244L65.6084 66.2474L65.2444 74.7507L59.1325 78.2062L59.0615 70.0688L57.7137 71.0675L57.7473 79.0126L51.934 82.2515C51.8308 82.3092 51.7147 82.3399 51.5965 82.341C51.4783 82.342 51.3617 82.3134 51.2574 82.2576C51.1532 82.2019 51.0646 82.1208 50.9998 82.0219C50.935 81.923 50.8962 81.8094 50.8868 81.6915L50.5358 76.8173C50.5059 75.7924 51.2825 74.7433 52.1805 74.2317L83.3319 56.2656L84.9411 49.3192L84.2503 49.5731Z"
        fill="#211E20"
      />
      <path
        d="M82.1166 47.7155C82.083 47.4224 82.0568 47.1275 82.0382 46.8325L86.498 44.219L81.9579 65.7713C81.9576 65.8307 81.9526 65.89 81.943 65.9486C81.9381 65.9956 81.9281 66.0419 81.9131 66.0868C81.8291 66.3873 81.452 66.6468 81.1664 66.8652L85.3312 45.6546L82.1166 47.7155Z"
        fill="#161415"
      />
      <path
        d="M30.9101 74.5623L47.8009 83.8085C48.2751 84.1168 48.8296 84.2785 49.3952 84.2734C49.9552 84.2734 50.028 84.2883 50.435 84.0531L81.3512 66.4211C81.5969 66.2829 81.8026 66.0836 81.9486 65.8424C81.9283 66.0809 81.8477 66.3103 81.7145 66.5092C81.5813 66.708 81.3997 66.8698 81.1869 66.9793L50.8364 84.503C50.3818 84.7428 49.8735 84.8623 49.3597 84.8502C48.7225 84.8553 48.0947 84.6972 47.5359 84.391L31.317 75.0271C31.0133 74.8568 30.7567 74.6137 30.5703 74.3196C30.6769 74.4095 30.7905 74.4906 30.9101 74.5623Z"
        fill="#232323"
      />
      <path
        d="M28.3395 54.5387L47.1942 65.2616L50.8924 65.075L86.5017 44.219L85.5067 48.9308C85.3295 49.0734 85.1423 49.2032 84.9467 49.3191L53.6833 67.3655C52.5837 68.0021 51.1425 68.3139 49.6416 68.3139C47.87 68.3139 46.0163 67.8789 44.5396 67.0258L27.9605 57.4547C27.5184 57.2005 27.1084 56.894 26.7396 56.5418L25.8062 52.1623L28.3395 54.5387Z"
        fill="#FFDA1A"
      />
      <path
        d="M24.7646 53.2619L26.0265 46.4648L60.7977 26.798C60.7977 26.798 65.5636 26.5516 67.5368 27.9088C69.51 29.2659 85.9025 38.0567 85.9025 38.0567C85.9025 38.0567 87.5042 38.0567 87.381 40.7057C87.325 41.9154 87.1663 41.809 87.0076 42.7387C87.2157 42.9521 87.4032 43.1846 87.5677 43.4331C87.3212 43.547 87.073 43.6534 86.8209 43.7598C86.7183 44.2806 86.6343 44.598 86.6343 44.598L86.1097 44.0566C85.9753 44.1089 85.8409 44.1668 85.7027 44.2153C85.379 43.8523 84.9966 43.5462 84.5714 43.3099L67.2848 33.33C65.067 32.0512 61.606 31.8888 59.7205 32.9753L27.1279 51.7871C27.0906 51.8076 27.0514 51.8337 27.0122 51.858C26.8255 51.6956 26.6202 51.5425 26.4223 51.3894L24.7646 53.2619Z"
        fill="url(#paint0_linear)"
      />
      <path
        d="M24.1746 53.456V49.097L27.2082 51.9477L43.6641 62.3514L52.58 62.8461L88.1352 41.2695V45.6267C88.1352 46.827 87.4388 47.8911 86.1713 48.6135L53.5768 67.4403C52.4306 68.103 50.9278 68.4278 49.3635 68.4278C47.5172 68.4278 45.5832 67.9742 44.0431 67.0856L26.7564 57.1056C25.1174 56.1592 24.1746 54.83 24.1746 53.4579V53.456Z"
        fill="url(#paint1_linear)"
      />
      <path
        d="M44.0431 62.7247L26.7564 52.7448C25.1174 51.802 24.1746 50.4729 24.1746 49.097C24.1746 47.8967 24.8728 46.8326 26.1404 46.1101L58.733 27.2927C61.2345 25.8478 65.4236 26.0046 68.2686 27.6456L85.5552 37.6274C87.1943 38.5738 88.1333 39.903 88.1333 41.2751C88.1333 42.4755 87.437 43.5395 86.1694 44.2713L53.5768 63.0831C52.4306 63.7459 50.9278 64.0707 49.3634 64.0707C47.5097 64.0707 45.5832 63.6171 44.0431 62.7247ZM85.1856 42.5632C85.6318 42.3056 86.1638 41.8725 86.1638 41.2751C86.1638 40.6367 85.5683 39.9105 84.5714 39.3355L67.2848 29.3537C65.067 28.0749 61.606 27.9125 59.7205 28.999L27.1279 47.8127C26.6818 48.0703 26.1497 48.5034 26.1497 49.1008C26.1497 49.7392 26.7452 50.4635 27.7421 51.0404L45.0287 61.0203C47.2446 62.301 50.7076 62.4615 52.5912 61.375L85.1856 42.5632Z"
        fill="#B29312"
      />
      <path
        d="M44.1495 62.3178L26.8628 52.3378C25.2947 51.4324 24.3949 50.1723 24.3949 48.8824C24.3949 47.7623 25.0539 46.7691 26.2487 46.0821L58.8468 27.2554C59.9165 26.6375 61.3745 26.2977 62.9538 26.2977C64.8206 26.2977 66.7173 26.7756 68.1641 27.6045L85.4507 37.5844C87.0188 38.4898 87.9186 39.7499 87.9186 41.0399C87.9186 42.16 87.2596 43.1531 86.0649 43.8401L53.4704 62.6575C52.3989 63.2754 50.9409 63.6171 49.3635 63.6171C47.4966 63.632 45.5981 63.1522 44.1495 62.3178ZM59.6066 28.5846L27.0178 47.402C26.3047 47.8145 25.9276 48.3354 25.9276 48.8824C25.9276 49.6011 26.5641 50.3982 27.632 51.0142L44.9186 60.9942C46.1339 61.698 47.7617 62.0993 49.3821 62.0993C50.6889 62.0993 51.8631 61.8343 52.7013 61.3526L85.2957 42.5352C86.0089 42.1245 86.386 41.613 86.386 41.0548C86.386 40.3361 85.7494 39.539 84.6816 38.9229L67.3949 28.9355C66.1778 28.2336 64.5518 27.8304 62.9314 27.8304C61.6284 27.8341 60.4486 28.1011 59.6104 28.5846H59.6066Z"
        fill="#FFDA1A"
      />
      <path
        d="M49.2458 32.9847L52.0124 31.3885L54.7286 15.5356L54.8276 14.97L54.1369 15.2108L52.1805 15.8922L49.2458 32.9847Z"
        fill="#161415"
      />
      <path
        d="M52.1767 15.8903L54.8257 14.97C54.9135 14.4566 55.1991 14.1075 55.55 13.9824L52.8992 14.9046C52.5407 15.0278 52.2645 15.3769 52.1767 15.8903Z"
        fill="#161415"
      />
      <path
        d="M54.1891 12.6028L56.8437 11.6806C56.4135 11.4263 55.9126 11.3176 55.4156 11.3707L52.7666 12.2929C53.2637 12.2391 53.7647 12.3479 54.1947 12.6028H54.1891Z"
        fill="#666666"
      />
      <path
        d="M74.6363 23.9363L77.2853 23.016L56.8381 11.6826L54.1891 12.603L74.6363 23.9363Z"
        fill="#666666"
      />
      <path
        d="M72.271 55.0839L74.92 54.1636L79.4377 27.8453L76.7887 28.7657L72.271 55.0839Z"
        fill="#161415"
      />
      <path
        d="M76.7887 28.7657L79.4321 27.8454C79.587 26.8126 79.4132 25.7573 78.9355 24.8286L76.2865 25.7508C76.766 26.6782 76.9417 27.7329 76.7887 28.7657Z"
        fill="#0A0A0A"
      />
      <path
        d="M76.2865 25.7507L78.9355 24.8285C78.5775 24.074 78.003 23.443 77.2853 23.0159L74.6363 23.9362C75.3541 24.3641 75.9285 24.9957 76.2865 25.7507Z"
        fill="black"
      />
      <path
        d="M47.5396 33.9758L49.2459 32.9883L52.1767 15.8921C52.3298 15.0035 53.0448 14.6096 53.7729 15.0091L54.1331 15.2107L54.7249 15.5355L74.22 26.3443C74.7046 26.6472 75.0526 27.1264 75.1907 27.6809C75.2897 28.0061 75.3133 28.3496 75.2598 28.6853L75.0544 29.8782L71.487 50.6912L71.0539 53.2189L70.8672 54.3091L72.271 55.0838L72.7601 52.2332L73.1932 49.7037L76.4583 30.6884L76.7887 28.7656C76.7979 28.7149 76.8041 28.6638 76.8074 28.6125C77.0501 26.8166 76.098 24.7463 74.6382 23.9455L54.191 12.6027C52.6976 11.7702 51.2135 12.5822 50.898 14.4117L47.5396 33.9758Z"
        fill="black"
      />
      <path
        d="M39.4059 38.5794L42.1725 36.9814L44.8887 21.1304L44.9877 20.5629L44.2969 20.8037L42.3405 21.4851L39.4059 38.5794Z"
        fill="#161415"
      />
      <path
        d="M42.3405 21.485L44.9895 20.5628C45.0773 20.0495 45.3629 19.7004 45.7138 19.5771L43.063 20.4975C42.7045 20.6226 42.4283 20.9698 42.3405 21.485Z"
        fill="#161415"
      />
      <path
        d="M44.3492 18.1958L46.9982 17.2755C46.568 17.0209 46.0673 16.9116 45.5701 16.9637L42.9211 17.8859C43.4181 17.8331 43.9188 17.9418 44.3492 18.1958Z"
        fill="#666666"
      />
      <path
        d="M64.7963 29.5311L67.4453 28.6089L46.9982 17.2755L44.3492 18.1958L64.7963 29.5311Z"
        fill="#666666"
      />
      <path
        d="M62.4311 60.6787L65.0801 59.7565L69.5978 33.4382L66.9488 34.3586L62.4311 60.6787Z"
        fill="#161415"
      />
      <path
        d="M66.9488 34.3587L69.5978 33.4384C69.7497 32.4074 69.574 31.3548 69.0956 30.4291L66.4466 31.3494C66.9261 32.2768 67.1017 33.3315 66.9488 34.3643V34.3587Z"
        fill="#0A0A0A"
      />
      <path
        d="M66.4466 31.3437L69.0956 30.4289C68.7375 29.6739 68.1631 29.0423 67.4453 28.6144L64.7963 29.5366C65.514 29.9638 66.0884 30.5948 66.4466 31.3493V31.3437Z"
        fill="black"
      />
      <path
        d="M37.6996 39.5653L39.4059 38.5796L42.3405 21.4852C42.4936 20.5985 43.2086 20.2027 43.9366 20.6022L44.2969 20.8039L44.8887 21.1305L64.3838 31.9375C64.8684 32.2404 65.2164 32.7196 65.3545 33.2741C65.4537 33.5999 65.4773 33.944 65.4236 34.2803L65.2164 35.4695L61.647 56.2844L61.2139 58.8139L61.0273 59.9041L62.4311 60.677L62.9202 57.8282L63.3533 55.2987L66.6183 36.2815L66.9488 34.3587C66.9581 34.3083 66.9618 34.2598 66.9674 34.2057C67.2083 32.4117 66.258 30.3395 64.7982 29.5386L44.3511 18.1959C42.8483 17.3633 41.3642 18.1773 41.058 20.0067L37.6996 39.5653Z"
        fill="black"
      />
      <path
        d="M59.7616 60.7386C59.7616 58.6197 61.255 56.0361 63.1087 54.9683C64.0422 54.425 64.8953 54.3821 65.5039 54.748L66.9637 55.5862L66.4335 56.4934C66.4447 56.6166 66.4522 56.7436 66.4522 56.878C66.4522 58.9987 64.9588 61.5824 63.1069 62.6483C62.9762 62.723 62.8493 62.7864 62.7242 62.835L62.2052 63.7236L60.82 62.9209C60.7624 62.8908 60.7063 62.8578 60.652 62.8219L60.596 62.7902C60.0808 62.415 59.7616 61.713 59.7616 60.7386Z"
        fill="#0A0A0A"
      />
      <path
        d="M66.9196 61.0197C68.2345 58.7705 68.2476 56.3317 66.949 55.5725C65.6504 54.8134 63.5317 56.0213 62.2169 58.2706C60.902 60.5198 60.8888 62.9586 62.1875 63.7177C63.4861 64.4769 65.6047 63.2689 66.9196 61.0197Z"
        fill="#FFDA1A"
      />
      <path
        d="M66.9224 61.0194C68.2055 58.8244 68.2182 56.4444 66.9507 55.7035C65.6832 54.9625 63.6156 56.1412 62.3324 58.3361C61.0493 60.5311 61.0366 62.9111 62.3041 63.652C63.5716 64.393 65.6392 63.2143 66.9224 61.0194Z"
        fill="#161415"
      />
      <path
        d="M65.7604 60.34C66.3936 59.2568 66.3997 58.0821 65.774 57.7163C65.1482 57.3505 64.1277 57.9321 63.4944 59.0153C62.8612 60.0986 62.8551 61.2732 63.4808 61.639C64.1065 62.0048 65.1271 61.4232 65.7604 60.34Z"
        fill="#FFDA1A"
      />
      <path
        d="M69.6015 55.1455C69.6015 53.0248 71.0949 50.4412 72.9487 49.3752C73.8821 48.832 74.7352 48.789 75.3438 49.1531L76.8036 49.9913L76.2735 50.8967C76.2847 51.0199 76.2921 51.1487 76.2921 51.2831C76.2921 53.4019 74.7987 55.9856 72.9468 57.0534C72.8256 57.122 72.701 57.1843 72.5735 57.2401L72.0545 58.1306L70.6581 57.3316C70.5993 57.3033 70.5425 57.2708 70.4882 57.2345L70.4341 57.2027C69.9207 56.8201 69.6015 56.1181 69.6015 55.1455Z"
        fill="#0A0A0A"
      />
      <path
        d="M76.7608 55.4276C78.0757 53.1783 78.0889 50.7395 76.7902 49.9804C75.4916 49.2212 73.373 50.4292 72.0581 52.6784C70.7432 54.9276 70.7301 57.3664 72.0287 58.1256C73.3273 58.8847 75.446 57.6768 76.7608 55.4276Z"
        fill="#FFDA1A"
      />
      <path
        d="M76.7636 55.4272C78.0467 53.2323 78.0594 50.8523 76.7919 50.1113C75.5245 49.3704 73.4568 50.5491 72.1737 52.744C70.8905 54.9389 70.8778 57.3189 72.1453 58.0599C73.4128 58.8008 75.4804 57.6221 76.7636 55.4272Z"
        fill="#161415"
      />
      <path
        d="M75.1027 54.7119C75.7301 53.6328 75.7334 52.4643 75.11 52.1019C74.4867 51.7395 73.4728 52.3205 72.8455 53.3996C72.2181 54.4786 72.2148 55.6472 72.8381 56.0096C73.4615 56.372 74.4754 55.791 75.1027 54.7119Z"
        fill="#FFDA1A"
      />
      <path
        d="M29.92 87.248V104H26.56V93.104L22.072 104H19.528L15.016 93.104V104H11.656V87.248H15.472L20.8 99.704L26.128 87.248H29.92ZM32.3779 97.304C32.3779 95.96 32.6419 94.768 33.1699 93.728C33.7139 92.688 34.4419 91.888 35.3539 91.328C36.2819 90.768 37.3139 90.488 38.4499 90.488C39.4419 90.488 40.3059 90.688 41.0419 91.088C41.7939 91.488 42.3939 91.992 42.8419 92.6V90.704H46.2259V104H42.8419V102.056C42.4099 102.68 41.8099 103.2 41.0419 103.616C40.2899 104.016 39.4179 104.216 38.4259 104.216C37.3059 104.216 36.2819 103.928 35.3539 103.352C34.4419 102.776 33.7139 101.968 33.1699 100.928C32.6419 99.872 32.3779 98.664 32.3779 97.304ZM42.8419 97.352C42.8419 96.536 42.6819 95.84 42.3619 95.264C42.0419 94.672 41.6099 94.224 41.0659 93.92C40.5219 93.6 39.9379 93.44 39.3139 93.44C38.6899 93.44 38.1139 93.592 37.5859 93.896C37.0579 94.2 36.6259 94.648 36.2899 95.24C35.9699 95.816 35.8099 96.504 35.8099 97.304C35.8099 98.104 35.9699 98.808 36.2899 99.416C36.6259 100.008 37.0579 100.464 37.5859 100.784C38.1299 101.104 38.7059 101.264 39.3139 101.264C39.9379 101.264 40.5219 101.112 41.0659 100.808C41.6099 100.488 42.0419 100.04 42.3619 99.464C42.6819 98.872 42.8419 98.168 42.8419 97.352ZM52.8676 92.768C53.2996 92.064 53.8596 91.512 54.5476 91.112C55.2516 90.712 56.0516 90.512 56.9476 90.512V94.04H56.0596C55.0036 94.04 54.2036 94.288 53.6596 94.784C53.1316 95.28 52.8676 96.144 52.8676 97.376V104H49.5076V90.704H52.8676V92.768ZM67.0827 104L62.5707 98.336V104H59.2107V86.24H62.5707V96.344L67.0347 90.704H71.4027L65.5467 97.376L71.4507 104H67.0827ZM85.5863 97.064C85.5863 97.544 85.5543 97.976 85.4903 98.36H75.7703C75.8503 99.32 76.1863 100.072 76.7783 100.616C77.3703 101.16 78.0983 101.432 78.9623 101.432C80.2103 101.432 81.0983 100.896 81.6263 99.824H85.2503C84.8663 101.104 84.1303 102.16 83.0423 102.992C81.9543 103.808 80.6183 104.216 79.0343 104.216C77.7543 104.216 76.6023 103.936 75.5783 103.376C74.5703 102.8 73.7783 101.992 73.2023 100.952C72.6423 99.912 72.3623 98.712 72.3623 97.352C72.3623 95.976 72.6423 94.768 73.2023 93.728C73.7623 92.688 74.5463 91.888 75.5543 91.328C76.5623 90.768 77.7223 90.488 79.0343 90.488C80.2983 90.488 81.4263 90.76 82.4183 91.304C83.4263 91.848 84.2023 92.624 84.7463 93.632C85.3063 94.624 85.5863 95.768 85.5863 97.064ZM82.1063 96.104C82.0903 95.24 81.7783 94.552 81.1703 94.04C80.5623 93.512 79.8183 93.248 78.9383 93.248C78.1063 93.248 77.4023 93.504 76.8263 94.016C76.2663 94.512 75.9223 95.208 75.7943 96.104H82.1063ZM91.9508 93.464V99.896C91.9508 100.344 92.0548 100.672 92.2628 100.88C92.4868 101.072 92.8548 101.168 93.3668 101.168H94.9268V104H92.8148C89.9828 104 88.5668 102.624 88.5668 99.872V93.464H86.9828V90.704H88.5668V87.416H91.9508V90.704H94.9268V93.464H91.9508Z"
        fill="black"
      />
      <path
        d="M29.92 87.248H30.92V86.248H29.92V87.248ZM29.92 104V105H30.92V104H29.92ZM26.56 104H25.56V105H26.56V104ZM26.56 93.104H27.56L25.6354 92.7231L26.56 93.104ZM22.072 104V105H22.7416L22.9966 104.381L22.072 104ZM19.528 104L18.6041 104.383L18.8597 105H19.528V104ZM15.016 93.104L15.9399 92.7214L14.016 93.104H15.016ZM15.016 104V105H16.016V104H15.016ZM11.656 104H10.656V105H11.656V104ZM11.656 87.248V86.248H10.656V87.248H11.656ZM15.472 87.248L16.3914 86.8547L16.1319 86.248H15.472V87.248ZM20.8 99.704L19.8806 100.097L20.8 102.247L21.7194 100.097L20.8 99.704ZM26.128 87.248V86.248H25.4681L25.2086 86.8547L26.128 87.248ZM28.92 87.248V104H30.92V87.248H28.92ZM29.92 103H26.56V105H29.92V103ZM27.56 104V93.104H25.56V104H27.56ZM25.6354 92.7231L21.1474 103.619L22.9966 104.381L27.4846 93.4849L25.6354 92.7231ZM22.072 103H19.528V105H22.072V103ZM20.4519 103.617L15.9399 92.7214L14.0921 93.4866L18.6041 104.383L20.4519 103.617ZM14.016 93.104V104H16.016V93.104H14.016ZM15.016 103H11.656V105H15.016V103ZM12.656 104V87.248H10.656V104H12.656ZM11.656 88.248H15.472V86.248H11.656V88.248ZM14.5526 87.6413L19.8806 100.097L21.7194 99.3107L16.3914 86.8547L14.5526 87.6413ZM21.7194 100.097L27.0474 87.6413L25.2086 86.8547L19.8806 99.3107L21.7194 100.097ZM26.128 88.248H29.92V86.248H26.128V88.248ZM33.1699 93.728L32.2838 93.2645L32.2783 93.2753L33.1699 93.728ZM35.3539 91.328L34.8373 90.4718L34.8307 90.4758L35.3539 91.328ZM41.0419 91.088L40.5644 91.9667L40.5723 91.9709L41.0419 91.088ZM42.8419 92.6L42.0369 93.1932L43.8419 95.6429V92.6H42.8419ZM42.8419 90.704V89.704H41.8419V90.704H42.8419ZM46.2259 90.704H47.2259V89.704H46.2259V90.704ZM46.2259 104V105H47.2259V104H46.2259ZM42.8419 104H41.8419V105H42.8419V104ZM42.8419 102.056H43.8419V98.8547L42.0197 101.487L42.8419 102.056ZM41.0419 103.616L41.5116 104.499L41.5182 104.495L41.0419 103.616ZM35.3539 103.352L34.8199 104.198L34.8266 104.202L35.3539 103.352ZM33.1699 100.928L32.2755 101.375L32.2796 101.383L32.2838 101.391L33.1699 100.928ZM42.3619 95.264L41.4822 95.7395L41.4878 95.7496L42.3619 95.264ZM41.0659 93.92L40.5589 94.7819L40.5685 94.7875L40.5781 94.7929L41.0659 93.92ZM37.5859 93.896L37.087 93.0294L37.5859 93.896ZM36.2899 95.24L35.4202 94.7464L35.4158 94.7544L36.2899 95.24ZM36.2899 99.416L35.405 99.8817L35.4124 99.8958L35.4203 99.9096L36.2899 99.416ZM37.5859 100.784L37.0676 101.639L37.0789 101.646L37.5859 100.784ZM41.0659 100.808L41.5538 101.681L41.5634 101.676L41.573 101.67L41.0659 100.808ZM42.3619 99.464L43.2362 99.9497L43.2416 99.9395L42.3619 99.464ZM33.3779 97.304C33.3779 96.0933 33.615 95.0604 34.0616 94.1807L32.2783 93.2753C31.6689 94.4755 31.3779 95.8267 31.3779 97.304H33.3779ZM34.056 94.1915C34.5247 93.2955 35.1336 92.6367 35.8772 92.1802L34.8307 90.4758C33.7502 91.1393 32.9032 92.0805 32.2838 93.2645L34.056 94.1915ZM35.8706 92.1842C36.635 91.7229 37.4869 91.488 38.4499 91.488V89.488C37.141 89.488 35.9288 89.8131 34.8373 90.4718L35.8706 92.1842ZM38.4499 91.488C39.3059 91.488 39.9998 91.6598 40.5644 91.9666L41.5195 90.2094C40.6121 89.7162 39.578 89.488 38.4499 89.488V91.488ZM40.5723 91.9709C41.2092 92.3096 41.6884 92.7202 42.0369 93.1932L43.647 92.0068C43.0995 91.2638 42.3787 90.6664 41.5116 90.2051L40.5723 91.9709ZM43.8419 92.6V90.704H41.8419V92.6H43.8419ZM42.8419 91.704H46.2259V89.704H42.8419V91.704ZM45.2259 90.704V104H47.2259V90.704H45.2259ZM46.2259 103H42.8419V105H46.2259V103ZM43.8419 104V102.056H41.8419V104H43.8419ZM42.0197 101.487C41.6897 101.963 41.2165 102.384 40.5657 102.737L41.5182 104.495C42.4034 104.016 43.1302 103.397 43.6641 102.625L42.0197 101.487ZM40.5723 102.733C39.987 103.044 39.2812 103.216 38.4259 103.216V105.216C39.5546 105.216 40.5928 104.988 41.5116 104.499L40.5723 102.733ZM38.4259 103.216C37.4873 103.216 36.6468 102.977 35.8813 102.502L34.8266 104.202C35.9171 104.879 37.1246 105.216 38.4259 105.216V103.216ZM35.8879 102.507C35.1379 102.033 34.5258 101.363 34.056 100.465L32.2838 101.391C32.9021 102.573 33.746 103.519 34.8199 104.197L35.8879 102.507ZM34.0644 100.481C33.6156 99.5833 33.3779 98.5324 33.3779 97.304H31.3779C31.3779 98.7956 31.6682 100.161 32.2755 101.375L34.0644 100.481ZM43.8419 97.352C43.8419 96.4061 43.6561 95.5344 43.2361 94.7784L41.4878 95.7496C41.7078 96.1456 41.8419 96.6659 41.8419 97.352H43.8419ZM43.2416 94.7885C42.8389 94.0434 42.2767 93.4511 41.5538 93.0471L40.5781 94.7929C40.9431 94.9969 41.245 95.3006 41.4822 95.7395L43.2416 94.7885ZM41.573 93.0581C40.8771 92.6488 40.1184 92.44 39.3139 92.44V94.44C39.7575 94.44 40.1667 94.5512 40.5589 94.7819L41.573 93.0581ZM39.3139 92.44C38.5192 92.44 37.7705 92.6358 37.087 93.0294L38.0849 94.7626C38.4573 94.5482 38.8606 94.44 39.3139 94.44V92.44ZM37.087 93.0294C36.3868 93.4325 35.8338 94.0178 35.4203 94.7464L37.1596 95.7336C37.4181 95.2782 37.7291 94.9675 38.0849 94.7626L37.087 93.0294ZM35.4158 94.7544C34.9973 95.5076 34.8099 96.3702 34.8099 97.304H36.8099C36.8099 96.6378 36.9426 96.1244 37.1641 95.7256L35.4158 94.7544ZM34.8099 97.304C34.8099 98.2395 34.9979 99.1082 35.405 99.8817L37.1749 98.9503C36.942 98.5078 36.8099 97.9685 36.8099 97.304H34.8099ZM35.4203 99.9096C35.8317 100.635 36.3789 101.222 37.0676 101.639L38.1042 99.9288C37.7369 99.7062 37.4202 99.3814 37.1596 98.9224L35.4203 99.9096ZM37.0789 101.646C37.7705 102.053 38.5207 102.264 39.3139 102.264V100.264C38.8912 100.264 38.4894 100.155 38.093 99.9221L37.0789 101.646ZM39.3139 102.264C40.1085 102.264 40.8605 102.068 41.5538 101.681L40.5781 99.9351C40.1834 100.156 39.7674 100.264 39.3139 100.264V102.264ZM41.573 101.67C42.2776 101.255 42.8334 100.674 43.2361 99.9496L41.4878 98.9784C41.2504 99.4056 40.9423 99.7206 40.5589 99.9461L41.573 101.67ZM43.2416 99.9395C43.6557 99.1735 43.8419 98.299 43.8419 97.352H41.8419C41.8419 98.037 41.7082 98.5705 41.4822 98.9885L43.2416 99.9395ZM52.8676 92.768H51.8676V96.3096L53.7199 93.291L52.8676 92.768ZM54.5476 91.112L54.0535 90.2425L54.0449 90.2475L54.5476 91.112ZM56.9476 90.512H57.9476V89.512H56.9476V90.512ZM56.9476 94.04V95.04H57.9476V94.04H56.9476ZM53.6596 94.784L52.9858 94.045L52.9803 94.0501L52.9749 94.0552L53.6596 94.784ZM52.8676 104V105H53.8676V104H52.8676ZM49.5076 104H48.5076V105H49.5076V104ZM49.5076 90.704V89.704H48.5076V90.704H49.5076ZM52.8676 90.704H53.8676V89.704H52.8676V90.704ZM53.7199 93.291C54.0688 92.7225 54.5107 92.2901 55.0502 91.9765L54.0449 90.2475C53.2084 90.7339 52.5304 91.4055 52.0152 92.245L53.7199 93.291ZM55.0416 91.9815C55.5794 91.6759 56.2059 91.512 56.9476 91.512V89.512C55.8973 89.512 54.9238 89.7481 54.0536 90.2425L55.0416 91.9815ZM55.9476 90.512V94.04H57.9476V90.512H55.9476ZM56.9476 93.04H56.0596V95.04H56.9476V93.04ZM56.0596 93.04C54.8617 93.04 53.7804 93.3206 52.9858 94.045L54.3333 95.523C54.6267 95.2554 55.1454 95.04 56.0596 95.04V93.04ZM52.9749 94.0552C52.1428 94.8368 51.8676 96.0509 51.8676 97.376H53.8676C53.8676 96.2371 54.1203 95.7232 54.3442 95.5128L52.9749 94.0552ZM51.8676 97.376V104H53.8676V97.376H51.8676ZM52.8676 103H49.5076V105H52.8676V103ZM50.5076 104V90.704H48.5076V104H50.5076ZM49.5076 91.704H52.8676V89.704H49.5076V91.704ZM51.8676 90.704V92.768H53.8676V90.704H51.8676ZM67.0827 104L66.3005 104.623L66.6008 105H67.0827V104ZM62.5707 98.336L63.3528 97.7129L61.5707 95.4757V98.336H62.5707ZM62.5707 104V105H63.5707V104H62.5707ZM59.2107 104H58.2107V105H59.2107V104ZM59.2107 86.24V85.24H58.2107V86.24H59.2107ZM62.5707 86.24H63.5707V85.24H62.5707V86.24ZM62.5707 96.344H61.5707V99.2187L63.3548 96.9646L62.5707 96.344ZM67.0347 90.704V89.704H66.5508L66.2506 90.0834L67.0347 90.704ZM71.4027 90.704L72.1543 91.3637L73.6109 89.704H71.4027V90.704ZM65.5467 97.376L64.7951 96.7163L64.2117 97.3811L64.8002 98.0414L65.5467 97.376ZM71.4507 104V105H73.6816L72.1972 103.335L71.4507 104ZM67.8648 103.377L63.3528 97.7129L61.7885 98.9591L66.3005 104.623L67.8648 103.377ZM61.5707 98.336V104H63.5707V98.336H61.5707ZM62.5707 103H59.2107V105H62.5707V103ZM60.2107 104V86.24H58.2107V104H60.2107ZM59.2107 87.24H62.5707V85.24H59.2107V87.24ZM61.5707 86.24V96.344H63.5707V86.24H61.5707ZM63.3548 96.9646L67.8188 91.3246L66.2506 90.0834L61.7866 95.7234L63.3548 96.9646ZM67.0347 91.704H71.4027V89.704H67.0347V91.704ZM70.6511 90.0443L64.7951 96.7163L66.2983 98.0357L72.1543 91.3637L70.6511 90.0443ZM64.8002 98.0414L70.7042 104.665L72.1972 103.335L66.2932 96.7106L64.8002 98.0414ZM71.4507 103H67.0827V105H71.4507V103ZM85.4903 98.36V99.36H86.3374L86.4767 98.5244L85.4903 98.36ZM75.7703 98.36V97.36H74.6835L74.7738 98.443L75.7703 98.36ZM76.7783 100.616L76.1017 101.352L76.7783 100.616ZM81.6263 99.824V98.824H81.0041L80.7292 99.3822L81.6263 99.824ZM85.2503 99.824L86.2081 100.111L86.5943 98.824H85.2503V99.824ZM83.0423 102.992L83.6423 103.792L83.6498 103.786L83.0423 102.992ZM75.5783 103.376L75.0822 104.244L75.0903 104.249L75.0985 104.253L75.5783 103.376ZM73.2023 100.952L72.3218 101.426L72.3275 101.437L73.2023 100.952ZM73.2023 93.728L72.3218 93.2539L73.2023 93.728ZM75.5543 91.328L76.04 92.2022V92.2022L75.5543 91.328ZM82.4183 91.304L81.9375 92.1808L81.9434 92.184L82.4183 91.304ZM84.7463 93.632L83.8663 94.1069L83.8708 94.1153L83.8755 94.1236L84.7463 93.632ZM82.1063 96.104V97.104H83.125L83.1061 96.0855L82.1063 96.104ZM81.1703 94.04L80.5146 94.795L80.5204 94.8L80.5262 94.8049L81.1703 94.04ZM76.8263 94.016L77.4893 94.7646L77.4907 94.7634L76.8263 94.016ZM75.7943 96.104L74.8044 95.9626L74.6413 97.104H75.7943V96.104ZM84.5863 97.064C84.5863 97.5011 84.5571 97.8767 84.5039 98.1956L86.4767 98.5244C86.5516 98.0753 86.5863 97.5869 86.5863 97.064H84.5863ZM85.4903 97.36H75.7703V99.36H85.4903V97.36ZM74.7738 98.443C74.8702 99.6008 75.2894 100.606 76.1017 101.352L77.4549 99.8797C77.0832 99.5381 76.8304 99.0392 76.7669 98.277L74.7738 98.443ZM76.1017 101.352C76.8927 102.079 77.8681 102.432 78.9623 102.432V100.432C78.3285 100.432 77.8479 100.241 77.4549 99.8797L76.1017 101.352ZM78.9623 102.432C79.7313 102.432 80.4521 102.266 81.0811 101.886C81.7126 101.505 82.188 100.947 82.5234 100.266L80.7292 99.3822C80.5366 99.7732 80.304 100.019 80.0476 100.174C79.7885 100.33 79.4413 100.432 78.9623 100.432V102.432ZM81.6263 100.824H85.2503V98.824H81.6263V100.824ZM84.2925 99.5367C83.9706 100.61 83.3601 101.49 82.4349 102.198L83.6498 103.786C84.9006 102.83 85.762 101.598 86.2081 100.111L84.2925 99.5367ZM82.4423 102.192C81.5548 102.858 80.4389 103.216 79.0343 103.216V105.216C80.7977 105.216 82.3538 104.758 83.6423 103.792L82.4423 102.192ZM79.0343 103.216C77.9054 103.216 76.9211 102.971 76.0581 102.499L75.0985 104.253C76.2835 104.901 77.6032 105.216 79.0343 105.216V103.216ZM76.0745 102.508C75.2294 102.025 74.5666 101.351 74.0771 100.468L72.3275 101.437C72.99 102.633 73.9112 103.575 75.0822 104.244L76.0745 102.508ZM74.0828 100.478C73.6124 99.6043 73.3623 98.5718 73.3623 97.352H71.3623C71.3623 98.8522 71.6722 100.22 72.3218 101.426L74.0828 100.478ZM73.3623 97.352C73.3623 96.1141 73.6133 95.074 74.0828 94.2021L72.3218 93.2539C71.6713 94.462 71.3623 95.8379 71.3623 97.352H73.3623ZM74.0828 94.2021C74.5545 93.3261 75.2034 92.6669 76.04 92.2022L75.0687 90.4538C73.8893 91.1091 72.9702 92.0499 72.3218 93.2539L74.0828 94.2021ZM76.04 92.2022C76.8799 91.7355 77.8685 91.488 79.0343 91.488V89.488C77.5761 89.488 76.2447 89.8005 75.0687 90.4538L76.04 92.2022ZM79.0343 91.488C80.1503 91.488 81.1095 91.7268 81.9375 92.1808L82.8991 90.4272C81.7431 89.7932 80.4463 89.488 79.0343 89.488V91.488ZM81.9434 92.184C82.7797 92.6354 83.4149 93.2706 83.8663 94.1069L85.6263 93.1571C84.9897 91.9774 84.0729 91.0606 82.8932 90.424L81.9434 92.184ZM83.8755 94.1236C84.3397 94.9459 84.5863 95.9162 84.5863 97.064H86.5863C86.5863 95.6198 86.2729 94.3021 85.6171 93.1404L83.8755 94.1236ZM83.1061 96.0855C83.0853 94.9614 82.6639 93.9904 81.8144 93.2751L80.5262 94.8049C80.8927 95.1136 81.0953 95.5186 81.1065 96.1225L83.1061 96.0855ZM81.826 93.285C81.0187 92.5839 80.0351 92.248 78.9383 92.248V94.248C79.6015 94.248 80.1059 94.4401 80.5146 94.795L81.826 93.285ZM78.9383 92.248C77.8826 92.248 76.9362 92.5804 76.1619 93.2686L77.4907 94.7634C77.8684 94.4276 78.3301 94.248 78.9383 94.248V92.248ZM76.1633 93.2674C75.3904 93.9519 74.9586 94.8832 74.8044 95.9626L76.7843 96.2454C76.8861 95.5328 77.1422 95.0721 77.4893 94.7646L76.1633 93.2674ZM75.7943 97.104H82.1063V95.104H75.7943V97.104ZM91.9508 93.464V92.464H90.9508V93.464H91.9508ZM92.2628 100.88L91.5557 101.587L91.5829 101.614L91.612 101.639L92.2628 100.88ZM94.9268 101.168H95.9268V100.168H94.9268V101.168ZM94.9268 104V105H95.9268V104H94.9268ZM88.5668 93.464H89.5668V92.464H88.5668V93.464ZM86.9828 93.464H85.9828V94.464H86.9828V93.464ZM86.9828 90.704V89.704H85.9828V90.704H86.9828ZM88.5668 90.704V91.704H89.5668V90.704H88.5668ZM88.5668 87.416V86.416H87.5668V87.416H88.5668ZM91.9508 87.416H92.9508V86.416H91.9508V87.416ZM91.9508 90.704H90.9508V91.704H91.9508V90.704ZM94.9268 90.704H95.9268V89.704H94.9268V90.704ZM94.9268 93.464V94.464H95.9268V93.464H94.9268ZM90.9508 93.464V99.896H92.9508V93.464H90.9508ZM90.9508 99.896C90.9508 100.473 91.0819 101.113 91.5557 101.587L92.9699 100.173C92.997 100.2 92.9938 100.213 92.982 100.176C92.9688 100.134 92.9508 100.047 92.9508 99.896H90.9508ZM91.612 101.639C92.1098 102.066 92.7757 102.168 93.3668 102.168V100.168C93.1687 100.168 93.038 100.149 92.9592 100.128C92.8811 100.108 92.882 100.094 92.9136 100.121L91.612 101.639ZM93.3668 102.168H94.9268V100.168H93.3668V102.168ZM93.9268 101.168V104H95.9268V101.168H93.9268ZM94.9268 103H92.8148V105H94.9268V103ZM92.8148 103C91.5459 103 90.7792 102.691 90.3257 102.251C89.8776 101.815 89.5668 101.086 89.5668 99.872H87.5668C87.5668 101.41 87.9641 102.745 88.9319 103.685C89.8944 104.621 91.2517 105 92.8148 105V103ZM89.5668 99.872V93.464H87.5668V99.872H89.5668ZM88.5668 92.464H86.9828V94.464H88.5668V92.464ZM87.9828 93.464V90.704H85.9828V93.464H87.9828ZM86.9828 91.704H88.5668V89.704H86.9828V91.704ZM89.5668 90.704V87.416H87.5668V90.704H89.5668ZM88.5668 88.416H91.9508V86.416H88.5668V88.416ZM90.9508 87.416V90.704H92.9508V87.416H90.9508ZM91.9508 91.704H94.9268V89.704H91.9508V91.704ZM93.9268 90.704V93.464H95.9268V90.704H93.9268ZM94.9268 92.464H91.9508V94.464H94.9268V92.464Z"
        fill="black"
      />
    </g>
    <defs>
      <filter
        id="filter0_d"
        x="0"
        y="4"
        width="108"
        height="108"
        filterUnits="userSpaceOnUse"
        color-interpolation-filters="sRGB"
      >
        <feFlood flood-opacity="0" result="BackgroundImageFix" />
        <feColorMatrix
          in="SourceAlpha"
          type="matrix"
          values="0 0 0 0 0 0 0 0 0 0 0 0 0 0 0 0 0 0 127 0"
        />
        <feOffset dy="4" />
        <feGaussianBlur stdDeviation="2" />
        <feColorMatrix
          type="matrix"
          values="0 0 0 0 0 0 0 0 0 0 0 0 0 0 0 0 0 0 0.25 0"
        />
        <feBlend
          mode="normal"
          in2="BackgroundImageFix"
          result="effect1_dropShadow"
        />
        <feBlend
          mode="normal"
          in="SourceGraphic"
          in2="effect1_dropShadow"
          result="shape"
        />
      </filter>
      <linearGradient
        id="paint0_linear"
        x1="87.5677"
        y1="40.0206"
        x2="24.7646"
        y2="40.0206"
        gradientUnits="userSpaceOnUse"
      >
        <stop offset="0.57" stop-color="#897007" />
        <stop offset="0.58" stop-color="#9D810B" />
        <stop offset="0.59" stop-color="#B79710" />
        <stop offset="0.6" stop-color="#CBA815" />
        <stop offset="0.61" stop-color="#DAB518" />
        <stop offset="0.62" stop-color="#E2BC19" />
        <stop offset="0.64" stop-color="#E5BE1A" />
        <stop offset="0.65" stop-color="#E5BE1A" />
        <stop offset="0.66" stop-color="#E7C122" />
        <stop offset="0.69" stop-color="#ECC730" />
        <stop offset="0.72" stop-color="#EECB38" />
        <stop offset="0.77" stop-color="#EFCC3A" />
        <stop offset="0.98" stop-color="#846C07" />
        <stop offset="0.99" stop-color="#5D4C04" />
        <stop offset="1" stop-color="#5B4A04" />
      </linearGradient>
      <linearGradient
        id="paint1_linear"
        x1="-182023"
        y1="8020.65"
        x2="-160109"
        y2="8020.65"
        gradientUnits="userSpaceOnUse"
      >
        <stop offset="0.57" stop-color="#897007" />
        <stop offset="0.58" stop-color="#9D810B" />
        <stop offset="0.59" stop-color="#B79710" />
        <stop offset="0.6" stop-color="#CBA815" />
        <stop offset="0.61" stop-color="#DAB518" />
        <stop offset="0.62" stop-color="#E2BC19" />
        <stop offset="0.64" stop-color="#E5BE1A" />
        <stop offset="0.65" stop-color="#E5BE1A" />
        <stop offset="0.66" stop-color="#E7C122" />
        <stop offset="0.69" stop-color="#ECC730" />
        <stop offset="0.72" stop-color="#EECB38" />
        <stop offset="0.77" stop-color="#EFCC3A" />
        <stop offset="0.98" stop-color="#846C07" />
        <stop offset="0.99" stop-color="#5D4C04" />
        <stop offset="1" stop-color="#5B4A04" />
      </linearGradient>
      <clipPath id="clip0">
        <rect
          width="89"
          height="110.369"
          fill="white"
          transform="translate(7)"
        />
      </clipPath>
    </defs>
  </svg>
