  <svg
    width="20"
    height="20"
    viewBox="0 0 20 20"
    fill="none"
    xmlns="http://www.w3.org/2000/svg"
  >
    <rect width="20" height="20" rx="5" fill="#F5FF63" />
    <line x1="9.5" y1="10.5" x2="9.5" y2="16.5" stroke="black" />
    <path
      d="M15 6C15 8.76142 12.7614 11 10 11C7.23858 11 5 8.76142 5 6C5 3.23858 7.23858 1 10 1C12.7614 1 15 3.23858 15 6Z"
      fill="#DD3A43"
    />
    <path
      d="M9 4C9 4.55228 8.55228 5 8 5C7.44772 5 7 4.55228 7 4C7 3.44772 7.44772 3 8 3C8.55228 3 9 3.44772 9 4Z"
      fill="white"
    />
  </svg>
